<svg xmlns="http://www.w3.org/2000/svg" xmlns:cc="http://web.resource.org/cc/" xmlns:svg="http://www.w3.org/2000/svg" xmlns:xlink="http://www.w3.org/1999/xlink" id="svg1" width="483.78" height="483.78"><defs id="defs3"><linearGradient id="linearGradient1797" x1="454.908" x2="281.082" y1="843.944" y2="677.136" gradientTransform="scale(1.014852,0.985365)" gradientUnits="userSpaceOnUse" xlink:href="#linearGradient1728"/><linearGradient id="linearGradient1849"><stop style="stop-color:#fff;stop-opacity:1" id="stop1850" offset="0"/><stop style="stop-color:#fff;stop-opacity:0" id="stop1851" offset="1"/></linearGradient><linearGradient id="linearGradient1852" x1="192.074" x2="404.12" y1="681.513" y2="925.793" gradientTransform="scale(1.140187,0.877049)" gradientUnits="userSpaceOnUse" xlink:href="#linearGradient1849"/><linearGradient id="linearGradient1739" x1="535.993" x2="485.246" y1="853.026" y2="852.105" gradientTransform="scale(1.129483,0.885361)" gradientUnits="userSpaceOnUse" xlink:href="#linearGradient1728"/><linearGradient id="linearGradient1779" x1="534.017" x2="446.077" y1="845.615" y2="845.054" gradientTransform="scale(1.129483,0.885361)" gradientUnits="userSpaceOnUse" xlink:href="#linearGradient1757"/><linearGradient id="linearGradient1748" x1="427.124" x2="425.956" y1="858.782" y2="807.671" gradientTransform="scale(0.885361,1.129483)" gradientUnits="userSpaceOnUse" xlink:href="#linearGradient1728"/><linearGradient id="linearGradient1771" x1="435.138" x2="428.737" y1="859.012" y2="780.446" gradientTransform="scale(0.885361,1.129483)" gradientUnits="userSpaceOnUse" xlink:href="#linearGradient1757"/><linearGradient id="linearGradient1735" x1="486.638" x2="487.222" y1="502.409" y2="537.864" gradientTransform="scale(0.885361,1.129483)" gradientUnits="userSpaceOnUse" xlink:href="#linearGradient1728"/><linearGradient id="linearGradient1763" x1="461.792" x2="454.679" y1="494.725" y2="580.587" gradientTransform="scale(0.885361,1.129483)" gradientUnits="userSpaceOnUse" xlink:href="#linearGradient1757"/><linearGradient id="linearGradient1752" x1="170.438" x2="214.037" y1="884.822" y2="883.441" gradientTransform="scale(1.129483,0.885361)" gradientUnits="userSpaceOnUse" xlink:href="#linearGradient1728"/><linearGradient id="linearGradient1767" x1="166.526" x2="248.371" y1="875.642" y2="875.642" gradientTransform="scale(1.129483,0.885361)" gradientUnits="userSpaceOnUse" xlink:href="#linearGradient1757"/><linearGradient id="linearGradient1731" x1="220.508" x2="277.583" y1="595.884" y2="655.77" gradientUnits="userSpaceOnUse" xlink:href="#linearGradient1728"/><linearGradient id="linearGradient1756" x1="222.617" x2="320.9" y1="598.233" y2="698.029" gradientUnits="userSpaceOnUse" xlink:href="#linearGradient1757"/><linearGradient id="linearGradient1790" x1="509.724" x2="291.217" y1="873.501" y2="668.474" gradientUnits="userSpaceOnUse" xlink:href="#linearGradient1728"/><linearGradient id="linearGradient1865" x1="294.923" x2="500.873" y1="666.924" y2="870.452" gradientUnits="userSpaceOnUse" xlink:href="#linearGradient1757"/><linearGradient id="linearGradient1728"><stop style="stop-color:#00009c;stop-opacity:1" id="stop1729" offset="0"/><stop style="stop-color:#2ca8ff;stop-opacity:1" id="stop1730" offset="1"/></linearGradient><linearGradient id="linearGradient1864" x1="524.382" x2="490.818" y1="896.29" y2="864.475" gradientTransform="scale(0.997943,1.002062)" gradientUnits="userSpaceOnUse" xlink:href="#linearGradient1728"/><linearGradient id="linearGradient1757"><stop style="stop-color:#d8d8ff;stop-opacity:1" id="stop1758" offset="0"/><stop style="stop-color:#2ca8ff;stop-opacity:1" id="stop1759" offset="1"/></linearGradient><linearGradient id="linearGradient1863" x1="523.163" x2="481.839" y1="896.437" y2="849.525" gradientTransform="scale(0.997943,1.002062)" gradientUnits="userSpaceOnUse" xlink:href="#linearGradient1757"/><linearGradient id="linearGradient2208"><stop style="stop-color:#15ee45;stop-opacity:1" id="stop2209" offset="0"/><stop style="stop-color:#fff;stop-opacity:.98969072" id="stop2210" offset="1"/></linearGradient><linearGradient id="linearGradient2197"><stop style="stop-color:#d2ffd3;stop-opacity:1" id="stop2198" offset="0"/><stop style="stop-color:#17e21a;stop-opacity:1" id="stop2199" offset="1"/></linearGradient><linearGradient id="linearGradient2173"><stop style="stop-color:#fff;stop-opacity:1" id="stop2174" offset="0"/><stop style="stop-color:#fafafa;stop-opacity:.99607843" id="stop2179" offset=".75"/><stop style="stop-color:silver;stop-opacity:.99215686" id="stop2175" offset="1"/></linearGradient><radialGradient id="radialGradient2190" cx="-65.429" cy="394.295" r="297.425" fx="-65.429" fy="394.295" gradientUnits="userSpaceOnUse" xlink:href="#linearGradient2173"/><radialGradient id="radialGradient2191" cx="-477.712" cy=".188" r="445.881" fx="-477.712" fy=".188" gradientTransform="scale(1.001998,0.998006)" gradientUnits="userSpaceOnUse" xlink:href="#linearGradient2173"/><radialGradient id="radialGradient2200" cx="87.137" cy="86.143" r="235.472" fx="87.137" fy="86.143" gradientTransform="scale(1.370440,0.729693)" gradientUnits="userSpaceOnUse" xlink:href="#linearGradient2197"/><radialGradient id="radialGradient2211" cx="102.874" cy="425.738" r="269.473" fx="102.874" fy="425.738" gradientTransform="scale(1.352682,0.739272)" gradientUnits="userSpaceOnUse" xlink:href="#linearGradient2197"/><radialGradient id="radialGradient2262" cx="102.874" cy="425.738" r="269.473" fx="102.874" fy="425.738" gradientTransform="matrix(1.352682,0.000000,0.000000,0.739272,102.9378,4.141679)" gradientUnits="userSpaceOnUse" xlink:href="#linearGradient2197"/><radialGradient id="radialGradient2265" cx="102.874" cy="425.738" r="269.473" fx="102.874" fy="425.738" gradientTransform="matrix(1.352682,0.000000,0.000000,0.739272,102.9378,4.141679)" gradientUnits="userSpaceOnUse" xlink:href="#linearGradient2197"/><radialGradient id="radialGradient2267" cx="102.874" cy="425.738" r="269.473" fx="102.874" fy="425.738" gradientTransform="matrix(1.352682,0.000000,0.000000,0.739272,102.9378,4.141679)" gradientUnits="userSpaceOnUse" xlink:href="#linearGradient2197"/><linearGradient id="linearGradient1782" x1="63.92" x2="63.92" y1="154.565" y2="-100.935" gradientUnits="userSpaceOnUse" xlink:href="#XMLID_1_"/><radialGradient id="radialGradient1783" cx="108.467" cy="118.249" r="34.736" fx="108.467" fy="118.249" gradientUnits="userSpaceOnUse" xlink:href="#XMLID_2_"/><linearGradient id="linearGradient1784" x1="-26.333" x2="56.166" y1="-26.333" y2="56.166" gradientUnits="userSpaceOnUse" xlink:href="#XMLID_3_"/><linearGradient id="linearGradient1785" x1="104.017" x2="95.088" y1="98.181" y2="135.794" gradientUnits="userSpaceOnUse" xlink:href="#XMLID_4_"/><linearGradient id="linearGradient1786" x1="82.309" x2="96.104" y1="88.093" y2="101.888" gradientUnits="userSpaceOnUse" xlink:href="#XMLID_5_"/><linearGradient id="linearGradient1787" x1="43.023" x2="204.007" y1="25.421" y2="111.065" gradientUnits="userSpaceOnUse" xlink:href="#XMLID_6_"/><linearGradient id="linearGradient1788" x1="-56.222" x2="74.82" y1="10.651" y2="10.651" gradientUnits="userSpaceOnUse" xlink:href="#XMLID_7_"/><linearGradient id="XMLID_7_" x1="-56.222" x2="74.82" y1="10.651" y2="10.651" gradientUnits="userSpaceOnUse"><stop style="stop-color:#fff" id="stop1388" offset="0"/><stop style="stop-color:#628bff" id="stop1390" offset="1"/><midPointStop style="stop-color:#fff" id="midPointStop1392" offset="0"/><midPointStop style="stop-color:#fff" id="midPointStop1394" offset=".5"/><midPointStop style="stop-color:#628bff" id="midPointStop1396" offset="1"/></linearGradient><linearGradient id="XMLID_1_" x1="63.92" x2="63.92" y1="154.565" y2="-100.935" gradientUnits="userSpaceOnUse"><stop style="stop-color:#fff" id="stop1287" offset="0"/><stop style="stop-color:#f1f1f1" id="stop1289" offset=".258"/><stop style="stop-color:#cecece" id="stop1291" offset=".74"/><stop style="stop-color:#c4c4c4" id="stop1293" offset=".86"/><midPointStop style="stop-color:#fff" id="midPointStop1295" offset="0"/><midPointStop style="stop-color:#fff" id="midPointStop1297" offset=".567"/><midPointStop style="stop-color:#c4c4c4" id="midPointStop1299" offset=".86"/></linearGradient><radialGradient id="XMLID_2_" cx="108.467" cy="118.249" r="34.736" fx="108.467" fy="118.249" gradientUnits="userSpaceOnUse"><stop style="stop-color:#000" id="stop1306" offset="0"/><stop style="stop-color:#000" id="stop1308" offset="1"/><midPointStop style="stop-color:#000" id="midPointStop1310" offset="0"/><midPointStop style="stop-color:#000" id="midPointStop1312" offset=".5"/><midPointStop style="stop-color:#000" id="midPointStop1314" offset="1"/></radialGradient><linearGradient id="XMLID_3_" x1="-26.333" x2="56.166" y1="-26.333" y2="56.166" gradientUnits="userSpaceOnUse"><stop style="stop-color:#b3b3b3" id="stop1321" offset="0"/><stop style="stop-color:#828282" id="stop1323" offset="1"/><midPointStop style="stop-color:#b3b3b3" id="midPointStop1325" offset="0"/><midPointStop style="stop-color:#b3b3b3" id="midPointStop1327" offset=".5"/><midPointStop style="stop-color:#828282" id="midPointStop1329" offset="1"/></linearGradient><linearGradient id="XMLID_4_" x1="104.017" x2="95.088" y1="98.181" y2="135.794" gradientUnits="userSpaceOnUse"><stop style="stop-color:#fff" id="stop1338" offset="0"/><stop style="stop-color:#ccc" id="stop1340" offset="1"/><midPointStop style="stop-color:#fff" id="midPointStop1342" offset="0"/><midPointStop style="stop-color:#fff" id="midPointStop1344" offset=".5"/><midPointStop style="stop-color:#ccc" id="midPointStop1346" offset="1"/></linearGradient><linearGradient id="XMLID_5_" x1="82.309" x2="96.104" y1="88.093" y2="101.888" gradientUnits="userSpaceOnUse"><stop style="stop-color:#b3b3b3" id="stop1353" offset="0"/><stop style="stop-color:#828282" id="stop1355" offset="1"/><midPointStop style="stop-color:#b3b3b3" id="midPointStop1357" offset="0"/><midPointStop style="stop-color:#b3b3b3" id="midPointStop1359" offset=".5"/><midPointStop style="stop-color:#828282" id="midPointStop1361" offset="1"/></linearGradient><linearGradient id="XMLID_6_" x1="43.023" x2="204.007" y1="25.421" y2="111.065" gradientUnits="userSpaceOnUse"><stop style="stop-color:#fff" id="stop1368" offset="0"/><stop style="stop-color:#e7e7e7" id="stop1370" offset=".503"/><stop style="stop-color:#d4d4d4" id="stop1372" offset="1"/><midPointStop style="stop-color:#fff" id="midPointStop1374" offset="0"/><midPointStop style="stop-color:#fff" id="midPointStop1376" offset=".452"/><midPointStop style="stop-color:#d4d4d4" id="midPointStop1378" offset="1"/></linearGradient><linearGradient id="linearGradient11299" x1="21.828" x2="182.81" y1="52.8" y2="138.443" gradientUnits="userSpaceOnUse"><stop style="stop-color:#fff" id="stop11026" offset="0"/><stop style="stop-color:#e7e7e7" id="stop11028" offset=".503"/><stop style="stop-color:#d4d4d4" id="stop11030" offset="1"/></linearGradient><linearGradient id="linearGradient11312" x1="-10.358" x2="120.962" y1="10.1" y2="10.1" gradientUnits="userSpaceOnUse"><stop style="stop-color:#b3caff" id="stop11039" offset="0"/><stop style="stop-color:#0053bd" id="stop11041" offset="1"/><midPointStop style="stop-color:#b3caff" id="midPointStop11043" offset="0"/><midPointStop style="stop-color:#b3caff" id="midPointStop11045" offset=".5"/><midPointStop style="stop-color:#0053bd" id="midPointStop11047" offset="1"/></linearGradient><linearGradient id="linearGradient11251" x1="57.584" x2="57.584" y1="154.013" y2="-101.487" gradientUnits="userSpaceOnUse"><stop style="stop-color:#fff" id="stop10978" offset="0"/><stop style="stop-color:#f1f1f1" id="stop10980" offset=".258"/><stop style="stop-color:#cecece" id="stop10982" offset=".74"/><stop style="stop-color:#c4c4c4" id="stop10984" offset=".86"/></linearGradient><linearGradient id="linearGradient11264" x1="-32.668" x2="49.83" y1="-26.884" y2="55.614" gradientUnits="userSpaceOnUse"><stop style="stop-color:#b2b2b2" id="stop10991" offset="0"/><stop style="stop-color:#828282" id="stop10993" offset="1"/><midPointStop style="stop-color:#b2b2b2" id="midPointStop10995" offset="0"/><midPointStop style="stop-color:#b2b2b2" id="midPointStop10997" offset=".5"/><midPointStop style="stop-color:#828282" id="midPointStop10999" offset="1"/></linearGradient><linearGradient id="linearGradient11279" x1="36.687" x2="197.669" y1="24.869" y2="110.512" gradientUnits="userSpaceOnUse"><stop style="stop-color:#fff" id="stop11006" offset="0"/><stop style="stop-color:#e7e7e7" id="stop11008" offset=".503"/><stop style="stop-color:#d4d4d4" id="stop11010" offset="1"/><midPointStop style="stop-color:#fff" id="midPointStop11012" offset="0"/><midPointStop style="stop-color:#fff" id="midPointStop11014" offset=".452"/><midPointStop style="stop-color:#d4d4d4" id="midPointStop11016" offset="1"/></linearGradient><linearGradient id="linearGradient14279" x1="28.164" x2="189.151" y1="53.351" y2="138.997" gradientUnits="userSpaceOnUse"><stop style="stop-color:#fff" id="stop14072" offset="0"/><stop style="stop-color:#e7e7e7" id="stop14074" offset=".503"/><stop style="stop-color:#d4d4d4" id="stop14076" offset="1"/><midPointStop style="stop-color:#fff" id="midPointStop14078" offset="0"/><midPointStop style="stop-color:#fff" id="midPointStop14080" offset=".452"/><midPointStop style="stop-color:#d4d4d4" id="midPointStop14082" offset="1"/></linearGradient><linearGradient id="XMLID_10_" x1="-4.022" x2="127.298" y1="10.651" y2="10.651" gradientUnits="userSpaceOnUse"><stop style="stop-color:#b3caff" id="stop14181" offset="0"/><stop style="stop-color:#0053bd" id="stop14183" offset="1"/><midPointStop style="stop-color:#b3caff" id="midPointStop14185" offset="0"/><midPointStop style="stop-color:#b3caff" id="midPointStop14187" offset=".5"/><midPointStop style="stop-color:#0053bd" id="midPointStop14189" offset="1"/></linearGradient><linearGradient id="linearGradient18745" x1="63.92" x2="63.92" y1="154.565" y2="-100.935" gradientUnits="userSpaceOnUse" xlink:href="#XMLID_1_"/><radialGradient id="radialGradient18746" cx="108.467" cy="118.249" r="34.736" fx="108.467" fy="118.249" gradientUnits="userSpaceOnUse" xlink:href="#XMLID_2_"/><linearGradient id="linearGradient18747" x1="-26.333" x2="56.166" y1="-26.333" y2="56.166" gradientUnits="userSpaceOnUse" xlink:href="#XMLID_3_"/><linearGradient id="linearGradient18748" x1="104.017" x2="95.088" y1="98.181" y2="135.794" gradientUnits="userSpaceOnUse" xlink:href="#XMLID_4_"/><linearGradient id="linearGradient18749" x1="82.309" x2="96.104" y1="88.093" y2="101.888" gradientUnits="userSpaceOnUse" xlink:href="#XMLID_5_"/><linearGradient id="linearGradient18750" x1="43.023" x2="204.007" y1="25.421" y2="111.065" gradientUnits="userSpaceOnUse" xlink:href="#XMLID_6_"/><linearGradient id="linearGradient18751" x1="-56.222" x2="74.82" y1="10.651" y2="10.651" gradientUnits="userSpaceOnUse" xlink:href="#XMLID_7_"/><linearGradient id="linearGradient18701" x1="-3.728" x2="127.593" y1="10.651" y2="10.651" gradientUnits="userSpaceOnUse"><stop style="stop-color:#b3caff" id="stop18540" offset="0"/><stop style="stop-color:#0053bd" id="stop18542" offset="1"/><midPointStop style="stop-color:#b3caff" id="midPointStop18544" offset="0"/><midPointStop style="stop-color:#b3caff" id="midPointStop18546" offset=".5"/><midPointStop style="stop-color:#0053bd" id="midPointStop18548" offset="1"/></linearGradient><linearGradient id="linearGradient20488" x1="63.92" x2="63.92" y1="154.565" y2="-100.935" gradientUnits="userSpaceOnUse" xlink:href="#XMLID_1_"/><radialGradient id="radialGradient20489" cx="108.467" cy="118.249" r="34.736" fx="108.467" fy="118.249" gradientUnits="userSpaceOnUse" xlink:href="#XMLID_2_"/><linearGradient id="linearGradient20490" x1="-26.333" x2="56.166" y1="-26.333" y2="56.166" gradientUnits="userSpaceOnUse" xlink:href="#XMLID_3_"/><linearGradient id="linearGradient20491" x1="104.017" x2="95.088" y1="98.181" y2="135.794" gradientUnits="userSpaceOnUse" xlink:href="#XMLID_4_"/><linearGradient id="linearGradient20492" x1="82.309" x2="96.104" y1="88.093" y2="101.888" gradientUnits="userSpaceOnUse" xlink:href="#XMLID_5_"/><linearGradient id="linearGradient20493" x1="43.023" x2="204.007" y1="25.421" y2="111.065" gradientUnits="userSpaceOnUse" xlink:href="#XMLID_6_"/><linearGradient id="linearGradient20494" x1="-56.222" x2="74.82" y1="10.651" y2="10.651" gradientUnits="userSpaceOnUse" xlink:href="#XMLID_7_"/><linearGradient id="linearGradient20495" x1="82.309" x2="96.104" y1="88.093" y2="101.888" gradientUnits="userSpaceOnUse" xlink:href="#XMLID_8_"/><linearGradient id="linearGradient20379" x1="-3.728" x2="127.593" y1="10.651" y2="10.651" gradientUnits="userSpaceOnUse"><stop style="stop-color:#b3caff" id="stop20203" offset="0"/><stop style="stop-color:#0053bd" id="stop20205" offset="1"/><midPointStop style="stop-color:#b3caff" id="midPointStop20207" offset="0"/><midPointStop style="stop-color:#b3caff" id="midPointStop20209" offset=".5"/><midPointStop style="stop-color:#0053bd" id="midPointStop20211" offset="1"/></linearGradient><linearGradient id="linearGradient4667" x1="21.426" x2="29.41" y1="98.799" y2="78.179" gradientTransform="scale(1.877039,0.532754)" gradientUnits="userSpaceOnUse" xlink:href="#linearGradient4611"/><linearGradient id="linearGradient4665" x1="21.426" x2="29.41" y1="98.799" y2="78.179" gradientTransform="scale(1.877039,0.532754)" gradientUnits="userSpaceOnUse" xlink:href="#linearGradient4611"/><linearGradient id="linearGradient4663" x1="21.426" x2="29.41" y1="98.799" y2="78.179" gradientTransform="scale(1.877039,0.532754)" gradientUnits="userSpaceOnUse" xlink:href="#linearGradient4611"/><linearGradient id="linearGradient4661" x1="21.426" x2="29.41" y1="98.799" y2="78.179" gradientTransform="scale(1.877039,0.532754)" gradientUnits="userSpaceOnUse" xlink:href="#linearGradient4611"/><linearGradient id="linearGradient4659" x1="21.426" x2="29.41" y1="98.799" y2="78.179" gradientTransform="scale(1.877039,0.532754)" gradientUnits="userSpaceOnUse" xlink:href="#linearGradient4611"/><linearGradient id="linearGradient4657" x1="21.426" x2="29.41" y1="98.799" y2="78.179" gradientTransform="scale(1.877039,0.532754)" gradientUnits="userSpaceOnUse" xlink:href="#linearGradient4611"/><linearGradient id="linearGradient4655" x1="21.426" x2="29.41" y1="98.799" y2="78.179" gradientTransform="scale(1.877039,0.532754)" gradientUnits="userSpaceOnUse" xlink:href="#linearGradient4611"/><linearGradient id="linearGradient4653" x1="21.426" x2="29.41" y1="98.799" y2="78.179" gradientTransform="scale(1.877039,0.532754)" gradientUnits="userSpaceOnUse" xlink:href="#linearGradient4611"/><linearGradient id="linearGradient16531" x1="17.075" x2="16.782" y1="126.991" y2="147.949" gradientTransform="scale(2.803775,0.356662)" gradientUnits="userSpaceOnUse" xlink:href="#linearGradient8197"/><linearGradient id="linearGradient16528" x1="16.489" x2="16.489" y1="97.615" y2="107.525" gradientTransform="matrix(2.803775,0.000000,0.000000,0.356662,0.000000,10.00000)" gradientUnits="userSpaceOnUse" xlink:href="#linearGradient8197"/><linearGradient id="linearGradient16522" x1="16.489" x2="16.489" y1="97.615" y2="107.525" gradientTransform="matrix(2.803775,0.000000,0.000000,0.356662,0.000000,10.00000)" gradientUnits="userSpaceOnUse" xlink:href="#linearGradient8197"/><radialGradient id="radialGradient9420" cx="-39.508" cy="51.498" r=".521" fx="-39.508" fy="51.498" gradientTransform="matrix(-24.65190,-0.660894,-0.499199,18.62058,-906.0425,-953.6116)" gradientUnits="userSpaceOnUse" spreadMethod="pad" xlink:href="#linearGradient5231"/><radialGradient id="radialGradient9417" cx="-39.508" cy="51.498" r=".521" fx="-39.508" fy="51.498" gradientTransform="matrix(-24.65190,-0.660894,-0.499199,18.62058,-906.0425,-953.6116)" gradientUnits="userSpaceOnUse" spreadMethod="pad" xlink:href="#linearGradient5231"/><radialGradient id="radialGradient9336" cx="49.8" cy="63.617" r="3.804" fx="49.8" fy="63.617" gradientTransform="scale(1.124132,0.889575)" gradientUnits="userSpaceOnUse" spreadMethod="pad" xlink:href="#linearGradient11282"/><linearGradient id="linearGradient9334" x1="51.472" x2="51.69" y1="54.918" y2="69.614" gradientTransform="scale(1.144586,0.873678)" gradientUnits="userSpaceOnUse" xlink:href="#linearGradient11282"/><linearGradient id="linearGradient9332" x1="50.347" x2="50.367" y1="60.249" y2="64.438" gradientTransform="scale(1.118587,0.893985)" gradientUnits="userSpaceOnUse" spreadMethod="reflect" xlink:href="#linearGradient10083"/><radialGradient id="radialGradient17982" cx="49.8" cy="63.617" r="3.804" fx="49.8" fy="63.617" gradientTransform="matrix(0.181313,0.000000,0.000000,0.136953,24.19134,35.78488)" gradientUnits="userSpaceOnUse" spreadMethod="pad" xlink:href="#linearGradient11282"/><radialGradient id="radialGradient17979" cx="27.293" cy="54.439" r=".746" fx="27.293" fy="54.439" gradientTransform="matrix(1.443776,0.000000,0.000000,1.101374,-6.198946,-16.39758)" gradientUnits="userSpaceOnUse" spreadMethod="reflect" xlink:href="#linearGradient17215"/><radialGradient id="radialGradient16451" cx="49.8" cy="63.617" r="3.804" fx="49.8" fy="63.617" gradientTransform="matrix(0.156707,0.000000,0.000000,9.965019e-2,26.26596,39.96921)" gradientUnits="userSpaceOnUse" spreadMethod="pad" xlink:href="#linearGradient11282"/><radialGradient id="radialGradient16429" cx="29.177" cy="54.593" r=".646" fx="29.177" fy="54.593" gradientTransform="matrix(1.443776,0.000000,0.000000,1.101374,-6.198946,-16.39758)" gradientUnits="userSpaceOnUse" spreadMethod="reflect" xlink:href="#linearGradient15665"/><radialGradient id="radialGradient14901" cx="49.8" cy="63.617" r="3.804" fx="49.8" fy="63.617" gradientTransform="matrix(0.181313,0.000000,0.000000,0.136953,26.89834,35.83114)" gradientUnits="userSpaceOnUse" spreadMethod="pad" xlink:href="#linearGradient11282"/><linearGradient id="linearGradient14877" x1="51.472" x2="51.69" y1="54.918" y2="69.614" gradientTransform="scale(1.144586,0.873678)" gradientUnits="userSpaceOnUse" xlink:href="#linearGradient11282"/><linearGradient id="linearGradient14825" x1="51.472" x2="51.69" y1="54.918" y2="69.614" gradientTransform="scale(1.144586,0.873678)" gradientUnits="userSpaceOnUse" xlink:href="#linearGradient11282"/><linearGradient id="linearGradient7417"><stop id="stop7419" offset="0" style="stop-color:#ff5900;stop-opacity:1"/><stop id="stop7421" offset="1" style="stop-color:#ff0;stop-opacity:1"/></linearGradient><linearGradient id="linearGradient8197"><stop id="stop8199" offset="0" style="stop-color:#fff;stop-opacity:1"/><stop id="stop8201" offset="1" style="stop-color:#fff;stop-opacity:0"/></linearGradient><linearGradient id="linearGradient11282"><stop id="stop11284" offset="0" style="stop-color:#fff;stop-opacity:1"/><stop id="stop11286" offset="1" style="stop-color:#fff;stop-opacity:0"/></linearGradient><linearGradient id="linearGradient5231"><stop id="stop5233" offset="0" style="stop-color:#e9ffe9;stop-opacity:1"/><stop id="stop6003" offset=".017" style="stop-color:#ffe;stop-opacity:.57254905"/><stop id="stop5237" offset=".174" style="stop-color:#ffffd0;stop-opacity:.14509805"/><stop id="stop6001" offset=".549" style="stop-color:#fff;stop-opacity:.14563107"/><stop id="stop5235" offset="1" style="stop-color:#fff;stop-opacity:0"/></linearGradient><linearGradient id="linearGradient10083"><stop style="stop-color:#00f;stop-opacity:1" id="stop10085" offset="0"/><stop style="stop-color:#00d0ff;stop-opacity:1" id="stop10087" offset="1"/></linearGradient><linearGradient id="linearGradient15665"><stop style="stop-color:red;stop-opacity:1" id="stop15667" offset="0"/><stop style="stop-color:#b20000;stop-opacity:1" id="stop15669" offset="1"/></linearGradient><linearGradient id="linearGradient17215"><stop style="stop-color:#0f0;stop-opacity:1" id="stop17217" offset="0"/><stop style="stop-color:#00a100;stop-opacity:1" id="stop17219" offset="1"/></linearGradient><linearGradient id="linearGradient4611"><stop style="stop-color:#000;stop-opacity:1" id="stop4613" offset="0"/><stop style="stop-color:#000;stop-opacity:0" id="stop4615" offset="1"/></linearGradient><linearGradient id="linearGradient2559" x1="50.347" x2="50.367" y1="60.249" y2="64.438" gradientTransform="scale(1.118587,0.893985)" gradientUnits="userSpaceOnUse" spreadMethod="reflect" xlink:href="#linearGradient10083"/><linearGradient id="linearGradient2561" x1="51.472" x2="51.69" y1="54.918" y2="69.614" gradientTransform="scale(1.144586,0.873678)" gradientUnits="userSpaceOnUse" xlink:href="#linearGradient11282"/><radialGradient id="radialGradient2563" cx="49.8" cy="63.617" r="3.804" fx="49.8" fy="63.617" gradientTransform="scale(1.124132,0.889575)" gradientUnits="userSpaceOnUse" spreadMethod="pad" xlink:href="#linearGradient11282"/><radialGradient id="radialGradient2565" cx="-39.508" cy="51.498" r=".521" fx="-39.508" fy="51.498" gradientTransform="matrix(-24.65190,-0.660894,-0.499199,18.62058,-906.0425,-953.6116)" gradientUnits="userSpaceOnUse" spreadMethod="pad" xlink:href="#linearGradient5231"/><radialGradient id="radialGradient2567" cx="-39.508" cy="51.498" r=".521" fx="-39.508" fy="51.498" gradientTransform="matrix(-24.65190,-0.660894,-0.499199,18.62058,-906.0425,-953.6116)" gradientUnits="userSpaceOnUse" spreadMethod="pad" xlink:href="#linearGradient5231"/></defs><metadata id="metadata4"/><path id="path1283" d="M 121.16400,1.0520000 L 6.8360000,1.0520000 L 6.8360000,126.94800 L 87.537000,126.94800 L 121.16400,93.321000 L 121.16400,1.0520000 L 121.16400,1.0520000 z" transform="matrix(3.543307,0.000000,0.000000,3.543307,0.000000,8.443359e-6)" style="fill:#fff"/><path id="path1302" d="M 117.73400,4.0190000 L 10.266000,4.0190000 L 10.106000,126.67300 L 86.563000,126.67300 L 117.73500,95.421000 L 117.73500,4.0190000 L 117.73400,4.0190000 z" transform="matrix(3.543307,0.000000,0.000000,3.543307,0.000000,8.443359e-6)" style="fill:url(#linearGradient1782)"/><path id="path1332" d="M 121.16400,0.55200000 L 6.3360000,0.55200000 L 6.3360000,127.44800 L 87.744000,127.44800 L 121.66400,93.528000 L 121.66400,0.55200000 L 121.16400,0.55200000 z M 120.66400,1.5520000 C 120.66400,2.5390000 120.66400,92.704000 120.66400,93.114000 C 120.37500,93.403000 87.619000,126.15900 87.330000,126.44800 C 86.920000,126.44800 8.3200000,126.44800 7.3360000,126.44800 C 7.3360000,125.46000 7.3360000,2.5390000 7.3360000,1.5520000 C 8.3220000,1.5520000 119.67800,1.5520000 120.66400,1.5520000 z" transform="matrix(3.543307,0.000000,0.000000,3.543307,0.000000,8.443359e-6)" style="fill:url(#linearGradient1784)"/><path id="path1381" d="M 118.00600,15.223000 L 118.00600,3.9400000 L 10.199000,3.9400000 L 10.103000,69.280000 C 20.078000,73.827000 31.254000,76.376000 43.057000,76.376000 C 80.402000,76.376000 111.45500,48.876000 118.00600,15.223000 z" transform="matrix(3.543307,0.000000,0.000000,3.543307,0.000000,8.443359e-6)" style="fill:url(#linearGradient1787)"/><path id="path1384" d="M 128.00000,128.00000 L 0.0000000,128.00000 L 0.0000000,0.0000000 L 128.00000,0.0000000 L 128.00000,128.00000 z" transform="matrix(3.543307,0.000000,0.000000,3.543307,0.000000,8.443359e-6)" style="fill:none"/><path id="path1399" d="M 117.39700,17.023000 L 10.013000,17.023000 L 10.013000,4.2790000 L 117.39800,4.2790000 L 117.39800,17.023000 L 117.39700,17.023000 z" transform="matrix(3.543307,0.000000,0.000000,3.543307,0.000000,8.443359e-6)" style="fill:url(#linearGradient1788)"/><g id="layer1" style="display:block"><path id="text1489" d="M 67.111082,21.195266 L 67.111082,27.205071 C 65.551554,26.507753 64.030086,25.981578 62.546673,25.626546 C 61.063223,25.271560 59.662205,25.094055 58.343614,25.094032 C 56.593911,25.094055 55.300663,25.334955 54.463866,25.816730 C 53.627048,26.298551 53.208645,27.046606 53.208654,28.060897 C 53.208645,28.821652 53.487580,29.417560 54.045462,29.848624 C 54.616003,30.267047 55.642993,30.628395 57.126438,30.932671 L 60.245451,31.560277 C 63.402480,32.194239 65.646645,33.157836 66.977953,34.451069 C 68.309214,35.744331 68.974857,37.582772 68.974882,39.966396 C 68.974857,43.098093 68.042958,45.431011 66.179182,46.965156 C 64.328040,48.486626 61.494306,49.247360 57.677971,49.247360 C 55.877553,49.247360 54.070810,49.076194 52.257736,48.733864 C 50.444645,48.391534 48.631562,47.884378 46.818482,47.212395 L 46.818482,41.031425 C 48.631562,41.995029 50.381250,42.724066 52.067552,43.218537 C 53.766516,43.700341 55.402094,43.941240 56.974291,43.941235 C 58.571819,43.941240 59.795333,43.674983 60.644836,43.142464 C 61.494306,42.609956 61.919049,41.849222 61.919067,40.860260 C 61.919049,39.972744 61.627434,39.288084 61.044222,38.806276 C 60.473654,38.324487 59.326214,37.893405 57.601897,37.513027 L 54.768160,36.885420 C 51.928076,36.276845 49.848736,35.306909 48.530135,33.975610 C 47.224204,32.644340 46.571241,30.850276 46.571243,28.593412 C 46.571241,25.766037 47.484121,23.591606 49.309889,22.070111 C 51.135645,20.548670 53.760177,19.787936 57.183493,19.787907 C 58.742984,19.787936 60.346865,19.908385 61.995141,20.149256 C 63.643379,20.377505 65.348691,20.726174 67.111082,21.195266 M 75.422109,20.301403 L 82.744181,20.301403 L 82.744181,37.322843 C 82.744170,39.668451 83.124537,41.348405 83.885283,42.362711 C 84.658684,43.364350 85.913895,43.865167 87.650920,43.865162 C 89.400592,43.865167 90.655803,43.364350 91.416557,42.362711 C 92.189950,41.348405 92.576657,39.668451 92.576678,37.322843 L 92.576678,20.301403 L 99.898750,20.301403 L 99.898750,37.322843 C 99.898721,41.342066 98.890749,44.334286 96.874829,46.299513 C 94.858859,48.264745 91.784226,49.247360 87.650920,49.247360 C 83.530262,49.247360 80.461968,48.264745 78.446030,46.299513 C 76.430078,44.334286 75.422105,41.342066 75.422109,37.322843 L 75.422109,20.301403 M 107.06867,20.301403 L 119.22141,20.301403 C 122.83488,20.301431 125.60522,21.106541 127.53244,22.716736 C 129.47229,24.314303 130.44222,26.596505 130.44225,29.563348 C 130.44222,32.542909 129.47229,34.837790 127.53244,36.447998 C 125.60522,38.045552 122.83488,38.844322 119.22141,38.844312 L 114.39075,38.844312 L 114.39075,48.695827 L 107.06867,48.695827 L 107.06867,20.301403 M 114.39075,25.607528 L 114.39075,33.538188 L 118.44166,33.538188 C 119.86168,33.538203 120.95841,33.195872 121.73184,32.511196 C 122.50523,31.813872 122.89194,30.831258 122.89196,29.563348 C 122.89194,28.295478 122.50523,27.319202 121.73184,26.634520 C 120.95841,25.949881 119.86168,25.607551 118.44166,25.607528 L 114.39075,25.607528 M 135.59623,20.301403 L 155.35631,20.301403 L 155.35631,25.835748 L 142.91830,25.835748 L 142.91830,31.122855 L 154.61460,31.122855 L 154.61460,36.657200 L 142.91830,36.657200 L 142.91830,43.161482 L 155.77472,43.161482 L 155.77472,48.695827 L 135.59623,48.695827 L 135.59623,20.301403 M 172.62499,32.891563 C 174.15912,32.891579 175.25585,32.606304 175.91517,32.035736 C 176.58713,31.465203 176.92312,30.526964 176.92314,29.221018 C 176.92312,27.927790 176.58713,27.002230 175.91517,26.444336 C 175.25585,25.886487 174.15912,25.607551 172.62499,25.607528 L 169.54402,25.607528 L 169.54402,32.891563 L 172.62499,32.891563 M 169.54402,37.950449 L 169.54402,48.695827 L 162.22194,48.695827 L 162.22194,20.301403 L 173.40474,20.301403 C 177.14501,20.301431 179.88365,20.929037 181.62068,22.184221 C 183.37035,23.439459 184.24519,25.423707 184.24522,28.136971 C 184.24519,30.013469 183.78875,31.553955 182.87589,32.758434 C 181.97567,33.962946 180.61268,34.850469 178.78694,35.421006 C 179.78856,35.649240 180.68242,36.169074 181.46853,36.980512 C 182.26728,37.779295 183.07239,38.996469 183.88387,40.632039 L 187.85871,48.695827 L 180.06117,48.695827 L 176.59983,41.640013 C 175.90247,40.219983 175.19246,39.250047 174.46977,38.730202 C 173.75974,38.210377 172.80882,37.950460 171.61702,37.950449 L 169.54402,37.950449 M 192.19489,20.301403 L 199.51697,20.301403 L 199.51697,30.666414 L 210.07216,20.301403 L 218.57337,20.301403 L 204.89916,33.747390 L 219.98073,48.695827 L 210.81388,48.695827 L 199.51697,37.513027 L 199.51697,48.695827 L 192.19489,48.695827 L 192.19489,20.301403 M 239.62671,43.522831 L 228.17765,43.522831 L 226.37090,48.695827 L 219.01079,48.695827 L 229.52795,20.301403 L 238.25738,20.301403 L 248.77454,48.695827 L 241.41443,48.695827 L 239.62671,43.522831 M 230.00341,38.254743 L 237.78192,38.254743 L 233.90218,26.957832 L 230.00341,38.254743 M 262.92421,32.891563 C 264.45834,32.891579 265.55506,32.606304 266.21438,32.035736 C 266.88635,31.465203 267.22234,30.526964 267.22236,29.221018 C 267.22234,27.927790 266.88635,27.002230 266.21438,26.444336 C 265.55506,25.886487 264.45834,25.607551 262.92421,25.607528 L 259.84323,25.607528 L 259.84323,32.891563 L 262.92421,32.891563 M 259.84323,37.950449 L 259.84323,48.695827 L 252.52116,48.695827 L 252.52116,20.301403 L 263.70396,20.301403 C 267.44422,20.301431 270.18286,20.929037 271.91990,22.184221 C 273.66956,23.439459 274.54440,25.423707 274.54443,28.136971 C 274.54440,30.013469 274.08796,31.553955 273.17511,32.758434 C 272.27488,33.962946 270.91190,34.850469 269.08616,35.421006 C 270.08777,35.649240 270.98163,36.169074 271.76775,36.980512 C 272.56650,37.779295 273.37161,38.996469 274.18308,40.632039 L 278.15792,48.695827 L 270.36039,48.695827 L 266.89905,41.640013 C 266.20169,40.219983 265.49167,39.250047 264.76899,38.730202 C 264.05895,38.210377 263.10804,37.950460 261.91623,37.950449 L 259.84323,37.950449 M 299.72475,43.522831 L 288.27569,43.522831 L 286.46895,48.695827 L 279.10884,48.695827 L 289.62600,20.301403 L 298.35543,20.301403 L 308.87259,48.695827 L 301.51248,48.695827 L 299.72475,43.522831 M 290.10146,38.254743 L 297.87997,38.254743 L 294.00022,26.957832 L 290.10146,38.254743 M 312.61920,20.301403 L 321.93821,20.301403 L 328.40445,35.497080 L 334.90873,20.301403 L 344.20872,20.301403 L 344.20872,48.695827 L 337.28603,48.695827 L 337.28603,27.927769 L 330.74371,43.237556 L 326.10323,43.237556 L 319.56091,27.927769 L 319.56091,48.695827 L 312.61920,48.695827 L 312.61920,20.301403 M 362.78966,31.294020 C 363.94343,31.294037 364.81827,31.040459 365.41420,30.533285 C 366.01009,30.026147 366.30804,29.278092 366.30806,28.289118 C 366.30804,27.312863 366.01009,26.571147 365.41420,26.063969 C 364.81827,25.544156 363.94343,25.284239 362.78966,25.284215 L 358.73875,25.284215 L 358.73875,31.294020 L 362.78966,31.294020 M 363.03690,43.713015 C 364.50764,43.713020 365.61070,43.402387 366.34610,42.781115 C 367.09413,42.159855 367.46816,41.221616 367.46818,39.966396 C 367.46816,38.736552 367.10047,37.817331 366.36511,37.208733 C 365.62972,36.587478 364.52032,36.276845 363.03690,36.276833 L 358.73875,36.276833 L 358.73875,43.713015 L 363.03690,43.713015 M 369.84548,33.500151 C 371.41764,33.956606 372.63481,34.799753 373.49700,36.029594 C 374.35914,37.259460 374.79023,38.768249 374.79025,40.555966 C 374.79023,43.294616 373.86467,45.335919 372.01357,46.679880 C 370.16243,48.023846 367.34771,48.695827 363.56941,48.695827 L 351.41668,48.695827 L 351.41668,20.301403 L 362.40929,20.301403 C 366.35242,20.301431 369.20517,20.897340 370.96756,22.089130 C 372.74258,23.280973 373.63011,25.189147 373.63013,27.813659 C 373.63011,29.195680 373.30679,30.374817 372.66019,31.351075 C 372.01355,32.314689 371.07531,33.031047 369.84548,33.500151 M 398.31597,43.522831 L 386.86692,43.522831 L 385.06017,48.695827 L 377.70006,48.695827 L 388.21722,20.301403 L 396.94665,20.301403 L 407.46381,48.695827 L 400.10370,48.695827 L 398.31597,43.522831 M 388.69268,38.254743 L 396.47119,38.254743 L 392.59145,26.957832 L 388.69268,38.254743" transform="scale(0.922049,1.084541)" style="font-size:38.949619;font-style:normal;font-variant:normal;font-weight:700;font-stretch:normal;fill:#fff;fill-opacity:1;stroke:none;stroke-width:1pt;stroke-linecap:butt;stroke-linejoin:miter;stroke-opacity:1;font-family:Bitstream Vera Sans;text-anchor:start;writing-mode:lr-tb"/><g id="g2487" transform="translate(280.8846,293.3276)"><g id="g2523" transform="matrix(7.668381,0.000000,0.000000,7.668381,-301.9710,-303.7033)"><g id="g9140" transform="matrix(20.71295,0.000000,0.000000,21.43274,-778.9408,-948.5315)"><path id="path9142" d="M 38.644531,45.769531 C 38.151041,46.347656 39.621093,46.240886 39.738281,45.910157" style="fill:none;fill-opacity:.75;fill-rule:evenodd;stroke:#000;stroke-width:.5;stroke-linecap:round;stroke-linejoin:round;stroke-miterlimit:4;stroke-opacity:.023529412"/><path id="path9144" d="M 38.644531,45.769531 C 38.151041,46.347656 39.621093,46.240886 39.738281,45.910157" style="fill:none;fill-opacity:.75;fill-rule:evenodd;stroke:#000;stroke-width:.40000001;stroke-linecap:round;stroke-linejoin:round;stroke-miterlimit:4;stroke-opacity:.023529412"/><path id="path9146" d="M 38.644531,45.769531 C 38.151041,46.347656 39.621093,46.240886 39.738281,45.910157" style="fill:none;fill-opacity:.75;fill-rule:evenodd;stroke:#000;stroke-width:.30000001;stroke-linecap:round;stroke-linejoin:round;stroke-miterlimit:4;stroke-opacity:.023529412"/><path id="path9148" d="M 38.644531,45.769531 C 38.151041,46.347656 39.621093,46.240886 39.738281,45.910157" style="fill:none;fill-opacity:.75;fill-rule:evenodd;stroke:#000;stroke-width:.25;stroke-linecap:round;stroke-linejoin:round;stroke-miterlimit:4;stroke-opacity:.023529412"/><path id="path9150" d="M 38.644531,45.769531 C 38.151041,46.347656 39.621093,46.240886 39.738281,45.910157" style="fill:none;fill-opacity:.75;fill-rule:evenodd;stroke:#000;stroke-width:.34999999;stroke-linecap:round;stroke-linejoin:round;stroke-miterlimit:4;stroke-opacity:.023529412"/><path id="path9152" d="M 38.644531,45.769531 C 38.151041,46.347656 39.621093,46.240886 39.738281,45.910157" style="fill:none;fill-opacity:.75;fill-rule:evenodd;stroke:#000;stroke-width:.44999999;stroke-linecap:round;stroke-linejoin:round;stroke-miterlimit:4;stroke-opacity:.023529412"/><path id="path9154" d="M 38.644531,45.769531 C 38.151041,46.347656 39.621093,46.240886 39.738281,45.910157" style="fill:none;fill-opacity:.75;fill-rule:evenodd;stroke:#000;stroke-width:.55000001;stroke-linecap:round;stroke-linejoin:round;stroke-miterlimit:4;stroke-opacity:.023529412"/><path id="path9156" d="M 38.644531,45.769531 C 38.151041,46.347656 39.621093,46.240886 39.738281,45.910157" style="fill:none;fill-opacity:.75;fill-rule:evenodd;stroke:#000;stroke-width:.55000001;stroke-linecap:round;stroke-linejoin:round;stroke-miterlimit:4;stroke-opacity:.023529412"/></g><g id="g14747" transform="matrix(-3.449857,-0.220914,-0.210861,3.292884,236.9831,-135.4037)"><path style="fill:url(#linearGradient2559);fill-opacity:1;fill-rule:evenodd;stroke:none;stroke-width:1px;stroke-linecap:butt;stroke-linejoin:miter;stroke-opacity:1" id="path9315" d="M 51.000670,55.001847 C 51.795155,57.145801 54.341698,58.000308 56.009903,58.000000 C 57.678108,57.999692 60.454142,57.178234 61.009903,55.000000 C 60.959099,51.953117 58.654359,49.999692 56.009903,50.000000 C 53.399111,50.000308 50.953560,51.887021 51.000670,55.001847 z"/><path style="opacity:.73737377;fill:url(#linearGradient2561);fill-opacity:1;fill-rule:nonzero;stroke:none;stroke-width:.46000001;stroke-linecap:round;stroke-linejoin:miter;stroke-miterlimit:4;stroke-dashoffset:0;stroke-opacity:.019230725" id="path10089" d="M 61.301811 52.335487 A 2.8445923 2.1713161 0 1 1 55.612626,52.335487 A 2.8445923 2.1713161 0 1 1 61.301811 52.335487 z" transform="translate(-2.477971,5.556639e-2)"/><path style="fill:url(#radialGradient2563);fill-opacity:1;fill-rule:evenodd;stroke:none;stroke-width:1px;stroke-linecap:butt;stroke-linejoin:miter;stroke-opacity:1" id="path11615" d="M 51.236280,54.888115 C 51.988016,56.896744 54.397532,57.697314 55.975973,57.697026 C 57.554414,57.696737 60.181072,56.927129 60.706929,54.886385 C 60.658858,52.031820 58.478134,50.201695 55.975973,50.201983 C 53.505664,50.202271 51.191706,51.969896 51.236280,54.888115 z"/><g id="g14727" transform="translate(-3.366382e-2,0.134655)"><path style="fill:none;fill-opacity:.75;fill-rule:evenodd;stroke:#000;stroke-width:.0099999998;stroke-linecap:round;stroke-linejoin:miter;stroke-miterlimit:4;stroke-opacity:.013736249" id="path12379" d="M 51.202665,54.877106 C 52.560438,58.916764 59.540070,58.950427 60.796852,54.978097"/><path style="fill:none;fill-opacity:.75;fill-rule:evenodd;stroke:#000;stroke-width:.11;stroke-linecap:round;stroke-linejoin:miter;stroke-miterlimit:4;stroke-opacity:.013736249" id="path13897" d="M 51.202665,54.877106 C 52.560438,58.916764 59.540070,58.950427 60.796852,54.978097"/><path style="fill:none;fill-opacity:.75;fill-rule:evenodd;stroke:#000;stroke-width:.20999999;stroke-linecap:round;stroke-linejoin:miter;stroke-miterlimit:4;stroke-opacity:.013736249" id="path13899" d="M 51.202665,54.877106 C 52.560438,58.916764 59.540070,58.950427 60.796852,54.978097"/><path style="fill:none;fill-opacity:.75;fill-rule:evenodd;stroke:#000;stroke-width:.31;stroke-linecap:round;stroke-linejoin:miter;stroke-miterlimit:4;stroke-opacity:.013736249" id="path13901" d="M 51.202665,54.877106 C 52.560438,58.916764 59.540070,58.950427 60.796852,54.978097"/><path style="fill:none;fill-opacity:.75;fill-rule:evenodd;stroke:#000;stroke-width:.41;stroke-linecap:round;stroke-linejoin:miter;stroke-miterlimit:4;stroke-opacity:.013736249" id="path13903" d="M 51.202665,54.877106 C 52.560438,58.916764 59.540070,58.950427 60.796852,54.978097"/><path style="fill:none;fill-opacity:.75;fill-rule:evenodd;stroke:#000;stroke-width:.50999999;stroke-linecap:round;stroke-linejoin:miter;stroke-miterlimit:4;stroke-opacity:.013736249" id="path13905" d="M 51.202665,54.877106 C 52.560438,58.916764 59.540070,58.950427 60.796852,54.978097"/><path style="fill:none;fill-opacity:.75;fill-rule:evenodd;stroke:#000;stroke-width:.61000001;stroke-linecap:round;stroke-linejoin:miter;stroke-miterlimit:4;stroke-opacity:.013736249" id="path13907" d="M 51.202665,54.877106 C 52.560438,58.916764 59.540070,58.950427 60.796852,54.978097"/><path style="fill:none;fill-opacity:.75;fill-rule:evenodd;stroke:#000;stroke-width:.70999998;stroke-linecap:round;stroke-linejoin:miter;stroke-miterlimit:4;stroke-opacity:.013736249" id="path13909" d="M 51.202665,54.877106 C 52.560438,58.916764 59.540070,58.950427 60.796852,54.978097"/><path style="fill:none;fill-opacity:.75;fill-rule:evenodd;stroke:#000;stroke-width:.85000002;stroke-linecap:round;stroke-linejoin:miter;stroke-miterlimit:4;stroke-opacity:.013736249" id="path13911" d="M 51.202665,54.877106 C 52.560438,58.916764 59.540070,58.950427 60.796852,54.978097"/><path style="fill:none;fill-opacity:.75;fill-rule:evenodd;stroke:#000;stroke-width:.75;stroke-linecap:round;stroke-linejoin:miter;stroke-miterlimit:4;stroke-opacity:.013736249" id="path13913" d="M 51.202665,54.877106 C 52.560438,58.916764 59.540070,58.950427 60.796852,54.978097"/><path style="fill:none;fill-opacity:.75;fill-rule:evenodd;stroke:#000;stroke-width:.85000002;stroke-linecap:round;stroke-linejoin:miter;stroke-miterlimit:4;stroke-opacity:.013736249" id="path13915" d="M 51.202665,54.877106 C 52.560438,58.916764 59.540070,58.950427 60.796852,54.978097"/><path style="fill:none;fill-opacity:.75;fill-rule:evenodd;stroke:#000;stroke-width:.75;stroke-linecap:round;stroke-linejoin:miter;stroke-miterlimit:4;stroke-opacity:.013736249" id="path13917" d="M 51.202665,54.877106 C 52.560438,58.916764 59.540070,58.950427 60.796852,54.978097"/><path style="fill:none;fill-opacity:.75;fill-rule:evenodd;stroke:#000;stroke-width:.64999998;stroke-linecap:round;stroke-linejoin:miter;stroke-miterlimit:4;stroke-opacity:.013736249" id="path13919" d="M 51.202665,54.877106 C 52.560438,58.916764 59.540070,58.950427 60.796852,54.978097"/><path style="fill:none;fill-opacity:.75;fill-rule:evenodd;stroke:#000;stroke-width:.55000001;stroke-linecap:round;stroke-linejoin:miter;stroke-miterlimit:4;stroke-opacity:.013736249" id="path13921" d="M 51.202665,54.877106 C 52.560438,58.916764 59.540070,58.950427 60.796852,54.978097"/><path style="fill:none;fill-opacity:.75;fill-rule:evenodd;stroke:#000;stroke-width:.44999999;stroke-linecap:round;stroke-linejoin:miter;stroke-miterlimit:4;stroke-opacity:.013736249" id="path13923" d="M 51.202665,54.877106 C 52.560438,58.916764 59.540070,58.950427 60.796852,54.978097"/><path style="fill:none;fill-opacity:.75;fill-rule:evenodd;stroke:#000;stroke-width:.34999999;stroke-linecap:round;stroke-linejoin:miter;stroke-miterlimit:4;stroke-opacity:.013736249" id="path13925" d="M 51.202665,54.877106 C 52.560438,58.916764 59.540070,58.950427 60.796852,54.978097"/><path style="fill:none;fill-opacity:.75;fill-rule:evenodd;stroke:#000;stroke-width:.25;stroke-linecap:round;stroke-linejoin:miter;stroke-miterlimit:4;stroke-opacity:.013736249" id="path13927" d="M 51.202665,54.877106 C 52.560438,58.916764 59.540070,58.950427 60.796852,54.978097"/><path style="fill:none;fill-opacity:.75;fill-rule:evenodd;stroke:#000;stroke-width:.25;stroke-linecap:round;stroke-linejoin:miter;stroke-miterlimit:4;stroke-opacity:.013736249" id="path13929" d="M 51.202665,54.877106 C 52.560438,58.916764 59.540070,58.950427 60.796852,54.978097"/></g></g><path style="fill:url(#radialGradient2565);fill-opacity:1;fill-rule:evenodd;stroke:none;stroke-width:1px;stroke-linecap:butt;stroke-linejoin:miter;stroke-opacity:1" id="path3040" d="M 48.089980,31.961300 C 45.314611,38.516976 36.917240,40.934419 31.462649,40.787240 C 26.008059,40.640040 16.999190,37.858198 15.362457,31.078164 C 15.780996,21.666960 23.478759,15.832410 32.125414,16.065169 C 40.662033,16.294971 48.502067,22.339798 48.089980,31.961300 z"/><path style="fill:url(#radialGradient2567);fill-opacity:1;fill-rule:evenodd;stroke:none;stroke-width:1px;stroke-linecap:butt;stroke-linejoin:miter;stroke-opacity:1" id="path3044" d="M 48.089980,31.961300 C 45.314611,38.516976 36.917240,40.934419 31.462649,40.787240 C 26.008059,40.640040 16.999190,37.858198 15.362457,31.078164 C 15.780996,21.666960 23.478759,15.832410 32.125414,16.065169 C 40.662033,16.294971 48.502067,22.339798 48.089980,31.961300 z"/></g></g></g><g id="g1261"><path id="path1317" d="M 85.191000,90.976000 L 85.191000,126.73000 L 86.984000,126.73000 L 120.62300,93.091000 L 120.62300,90.976000 L 85.191000,90.976000 L 85.191000,90.976000 z" transform="matrix(3.543307,0.000000,0.000000,3.543307,0.000000,8.443359e-6)" style="opacity:.099999972;fill:url(#radialGradient1783)"/><path id="path1334" d="M 87.537000,126.94800 L 121.16400,93.321000 L 87.537000,93.321000 L 87.537000,126.94800 z" transform="matrix(3.543307,0.000000,0.000000,3.543307,0.000000,8.443359e-6)" style="fill:#fff"/><path id="path1349" d="M 89.865000,125.05600 L 119.45900,95.464000 L 89.865000,95.464000 L 89.865000,125.05600 z" transform="matrix(3.543307,0.000000,0.000000,3.543307,0.000000,8.443359e-6)" style="fill:url(#linearGradient1785)"/><path id="path1364" d="M 87.537000,92.821000 C 87.260000,92.821000 87.037000,93.044000 87.037000,93.321000 L 87.037000,126.94800 C 87.037000,127.15100 87.158000,127.33300 87.346000,127.41100 C 87.532000,127.48700 87.748000,127.44400 87.891000,127.30200 L 121.51800,93.675000 C 121.66100,93.530000 121.70400,93.316000 121.62700,93.130000 C 121.54900,92.942000 121.36700,92.821000 121.16400,92.821000 L 87.537000,92.821000 L 87.537000,92.821000 z M 119.95700,93.821000 C 118.37700,95.399000 89.615000,124.16100 88.037000,125.74100 C 88.037000,123.53200 88.037000,94.755000 88.037000,93.821000 C 88.971000,93.821000 117.74800,93.821000 119.95700,93.821000 z" transform="matrix(3.543307,0.000000,0.000000,3.543307,0.000000,8.443359e-6)" style="fill:url(#linearGradient1786)"/></g></svg>