<svg xmlns="http://www.w3.org/2000/svg" xmlns:cc="http://web.resource.org/cc/" xmlns:svg="http://www.w3.org/2000/svg" xmlns:xlink="http://www.w3.org/1999/xlink" id="svg2" width="128" height="128" enable-background="new 0 0 128 128" overflow="visible" viewBox="0 0 128 128" xml:space="preserve"><metadata id="metadata62"/><defs id="defs60"><linearGradient id="linearGradient4979"><stop id="stop4981" offset="0" style="stop-color:#fbf0e0;stop-opacity:1"/><stop id="stop4983" offset="1" style="stop-color:#f0ce99;stop-opacity:1"/></linearGradient><linearGradient id="linearGradient2269" x1="30.062" x2="17.696" y1="13.445" y2="12.334" gradientUnits="userSpaceOnUse" xlink:href="#linearGradient4979"/><radialGradient id="radialGradient2908" cx="21.579" cy="9.811" r="9.586" fx="21.579" fy="9.811" gradientTransform="matrix(0.74942,0,0,0.394055,6.226925,10.09253)" gradientUnits="userSpaceOnUse" xlink:href="#linearGradient2869"/><radialGradient id="radialGradient2906" cx="23.944" cy="20.8" r="6.429" fx="23.944" fy="20.8" gradientTransform="matrix(1.353283,5.468101e-16,-1.144754e-13,0.635968,-8.45889,3.41347)" gradientUnits="userSpaceOnUse" xlink:href="#linearGradient2884"/><linearGradient id="linearGradient2869"><stop style="stop-color:#fff;stop-opacity:1" id="stop2871" offset="0"/><stop style="stop-color:#ccc;stop-opacity:1" id="stop2873" offset="1"/></linearGradient><radialGradient id="radialGradient2898" cx="21.579" cy="9.026" r="9.586" fx="21.579" fy="9.026" gradientTransform="matrix(0.74942,0,0,0.394055,6.226925,10.09253)" gradientUnits="userSpaceOnUse" xlink:href="#linearGradient2869"/><linearGradient id="linearGradient2884"><stop style="stop-color:#000;stop-opacity:1" id="stop2886" offset="0"/><stop style="stop-color:#000;stop-opacity:0" id="stop2888" offset="1"/></linearGradient><radialGradient id="radialGradient2896" cx="23.944" cy="20.8" r="6.429" fx="23.944" fy="20.8" gradientTransform="matrix(1.353283,5.468101e-16,-1.144754e-13,0.635968,-8.45889,3.41347)" gradientUnits="userSpaceOnUse" xlink:href="#linearGradient2884"/><linearGradient id="linearGradient4995"><stop id="stop4997" offset="0" style="stop-color:#de9523;stop-opacity:1"/><stop id="stop4999" offset="1" style="stop-color:#a36d18;stop-opacity:1"/></linearGradient><linearGradient id="linearGradient2274" x1="36.289" x2="47.066" y1="14.662" y2="15.268" gradientUnits="userSpaceOnUse" xlink:href="#linearGradient4995"/><linearGradient id="linearGradient4192"><stop id="stop4194" offset="0" style="stop-color:#e9b96e;stop-opacity:1"/><stop id="stop4196" offset="1" style="stop-color:#f1d19e;stop-opacity:1"/></linearGradient><linearGradient id="linearGradient2277" x1="25.381" x2="24.119" y1="24.721" y2="16.17" gradientTransform="matrix(1,0,0,0.986355,1.581201e-15,0.316638)" gradientUnits="userSpaceOnUse" xlink:href="#linearGradient4192"/><linearGradient id="linearGradient4987"><stop id="stop4989" offset="0" style="stop-color:#a0670c;stop-opacity:1"/><stop id="stop4991" offset="1" style="stop-color:#a0670c;stop-opacity:0"/></linearGradient><linearGradient id="linearGradient2282" x1="21.907" x2="22.072" y1="9.758" y2="16.021" gradientUnits="userSpaceOnUse" xlink:href="#linearGradient4987"/><linearGradient id="linearGradient4182"><stop id="stop4184" offset="0" style="stop-color:#a36d18;stop-opacity:1"/><stop id="stop4186" offset="1" style="stop-color:#d79020;stop-opacity:1"/></linearGradient><linearGradient id="linearGradient2280" x1="16.149" x2="34.194" y1="12.637" y2="12.637" gradientTransform="matrix(1,0,0,1.039184,1.581201e-15,-4.057054e-2)" gradientUnits="userSpaceOnUse" xlink:href="#linearGradient4182"/><linearGradient id="linearGradient4222"><stop id="stop4224" offset="0" style="stop-color:#fff;stop-opacity:1"/><stop id="stop4226" offset="1" style="stop-color:#fff;stop-opacity:.68639052"/></linearGradient><linearGradient id="linearGradient2285" x1="18.707" x2="30.015" y1="19.912" y2="47.388" gradientUnits="userSpaceOnUse" xlink:href="#linearGradient4222"/><linearGradient id="linearGradient4210"><stop id="stop4212" offset="0" style="stop-color:#eaba6f;stop-opacity:1"/><stop id="stop4214" offset="1" style="stop-color:#b97a1b;stop-opacity:1"/></linearGradient><linearGradient id="linearGradient2288" x1="24.99" x2="24.99" y1="34.005" y2="22.585" gradientUnits="userSpaceOnUse" xlink:href="#linearGradient4210"/><linearGradient id="linearGradient4946"><stop id="stop4948" offset="0" style="stop-color:#000;stop-opacity:1"/><stop id="stop4950" offset="1" style="stop-color:#000;stop-opacity:0"/></linearGradient><radialGradient id="radialGradient2252" cx="22.93" cy="35.373" r="17.577" fx="22.93" fy="35.373" gradientTransform="matrix(1,0,0,0.333333,9.848894e-16,23.58206)" gradientUnits="userSpaceOnUse" xlink:href="#linearGradient4946"/></defs><g id="Layer_1"><g id="g5"><g id="g7"><radialGradient id="XMLID_1_" cx="15.001" cy="35.947" r="26.929" fx="15.001" fy="35.947" gradientUnits="userSpaceOnUse"><stop style="stop-color:#fff" id="stop10" offset="0"/><stop style="stop-color:#d200de" id="stop12" offset="1"/></radialGradient><path id="path14" fill="url(#XMLID_1_)" d="M27.345,27.345V0.787L0.787,27.345H27.345z"/><path id="path16" fill="#7E00B3" d="M26.947,0.391L0.391,26.947c-0.161,0.161-0.208,0.402-0.122,0.612c0.087,0.209,0.292,0.346,0.519,0.346 h26.558c0.31,0,0.561-0.251,0.561-0.561V0.787c0-0.227-0.137-0.432-0.346-0.519C27.35,0.183,27.107,0.229,26.947,0.391z M26.783,2.142c0,2.386,0,23.623,0,24.642c-1.019,0-22.256,0-24.642,0C3.854,25.07,25.07,3.854,26.783,2.142z"/><radialGradient id="XMLID_2_" cx="16.743" cy="30.398" r="18.033" fx="16.743" fy="30.398" gradientUnits="userSpaceOnUse"><stop style="stop-color:#fff" id="stop19" offset="0"/><stop style="stop-color:#d200de" id="stop21" offset="1"/></radialGradient><path id="path23" fill="url(#XMLID_2_)" d="M11.103,20.761c1.093,0.142,2.218,0.224,3.37,0.224c3.93,0,7.56-0.865,10.536-2.322V6.854 L11.103,20.761z"/><linearGradient id="XMLID_3_" x1="18.056" x2="18.056" y1="3.312" y2="37.536" gradientUnits="userSpaceOnUse"><stop style="stop-color:#fff" id="stop26" offset="0"/><stop style="stop-color:#d200de" id="stop28" offset="1"/></linearGradient><path id="path30" fill="url(#XMLID_3_)" d="M11.103,20.761c1.093,0.142,2.218,0.224,3.37,0.224c3.93,0,7.56-0.865,10.536-2.322V6.854 L11.103,20.761z"/></g><g id="g32"><radialGradient id="XMLID_4_" cx="107.014" cy="129.831" r="28.053" fx="107.014" fy="129.831" gradientUnits="userSpaceOnUse"><stop style="stop-color:#fff" id="stop35" offset="0"/><stop style="stop-color:#d200de" id="stop37" offset="1"/></radialGradient><path id="path39" fill="url(#XMLID_4_)" d="M100.656,100.656v26.557l26.557-26.557H100.656z"/><path id="path41" fill="#7E00B3" d="M100.656,100.095c-0.311,0-0.562,0.251-0.562,0.562v26.557c0,0.228,0.137,0.432,0.347,0.519 c0.209,0.087,0.451,0.039,0.611-0.122l26.557-26.557c0.16-0.16,0.209-0.402,0.122-0.611c-0.087-0.21-0.291-0.347-0.519-0.347 H100.656z M125.858,101.217c-1.714,1.713-22.928,22.928-24.642,24.642c0-2.386,0-23.622,0-24.642 C102.236,101.217,123.473,101.217,125.858,101.217z"/><radialGradient id="XMLID_5_" cx="107.404" cy="123.215" r="19.293" fx="107.404" fy="123.215" gradientUnits="userSpaceOnUse"><stop style="stop-color:#fff" id="stop44" offset="0"/><stop style="stop-color:#d200de" id="stop46" offset="1"/></radialGradient><path id="path48" fill="url(#XMLID_5_)" d="M121.295,103.147h-0.674c-0.121,0.364-0.249,0.726-0.405,1.079L121.295,103.147z"/><linearGradient id="XMLID_6_" x1="111.588" x2="111.588" y1="97.049" y2="121.735" gradientUnits="userSpaceOnUse"><stop style="stop-color:#fff" id="stop51" offset="0"/><stop style="stop-color:#d200de" id="stop53" offset="1"/></linearGradient><path id="path55" fill="url(#XMLID_6_)" d="M103.044,102.532v10.934c3.49-0.25,6.702-1.181,9.412-2.602c3.383-1.773,5.969-4.313,7.283-7.283 c0.151-0.344,0.276-0.695,0.394-1.049H103.044z"/></g></g><path id="path57" fill="none" d="M128,128H0V0h128V128z"/></g><g id="g1537" transform="matrix(2.022201,0,0,2.386346,17.42835,0.767706)"><path style="opacity:.56962023;color:#000;fill:url(#radialGradient2252);fill-opacity:1;fill-rule:nonzero;stroke:none;stroke-width:1;stroke-linecap:round;stroke-linejoin:round;marker:none;marker-start:none;marker-mid:none;marker-end:none;stroke-miterlimit:4;stroke-dasharray:none;stroke-dashoffset:0;stroke-opacity:1;visibility:visible;display:block;overflow:visible" id="path4944" d="M 40.507116 35.373093 A 17.576654 5.8588848 0 1 1 5.3538074,35.373093 A 17.576654 5.8588848 0 1 1 40.507116 35.373093 z" transform="matrix(1.247126,0,0,1.247126,-5.363677,-9.549748)"/><rect style="opacity:1;color:#000;fill:url(#linearGradient2288);fill-opacity:1;fill-rule:nonzero;stroke:#a0670c;stroke-width:1.00000072;stroke-linecap:butt;stroke-linejoin:miter;marker:none;marker-start:none;marker-mid:none;marker-end:none;stroke-miterlimit:4;stroke-dasharray:none;stroke-dashoffset:0;stroke-opacity:1;visibility:visible;display:block;overflow:visible" id="rect3115" width="31.978" height="23.113" x="7.462" y="15.275" rx="1.199" ry="1.003"/><rect id="rect4220" width="29.804" height="21.075" x="8.499" y="16.244" rx=".635" ry=".538" style="opacity:.48101268;color:#000;fill:none;fill-opacity:1;fill-rule:nonzero;stroke:url(#linearGradient2285);stroke-width:1.00000107;stroke-linecap:butt;stroke-linejoin:miter;marker:none;marker-start:none;marker-mid:none;marker-end:none;stroke-miterlimit:4;stroke-dasharray:none;stroke-dashoffset:0;stroke-opacity:1;visibility:visible;display:block;overflow:visible"/><path style="fill:url(#linearGradient2280);fill-opacity:1;fill-rule:evenodd;stroke:url(#linearGradient2282);stroke-width:1.00000083;stroke-linecap:butt;stroke-linejoin:miter;stroke-miterlimit:4;stroke-dasharray:none;stroke-opacity:1" id="path4162" d="M 8.7697819,16.547178 L 13.819731,9.7363408 L 32.615291,9.6353255 L 37.835264,16.408941 L 8.7697819,16.547178 z"/><path style="opacity:1;color:#000;fill:url(#linearGradient2277);fill-opacity:1;fill-rule:nonzero;stroke:#a0670c;stroke-width:1.00000048;stroke-linecap:round;stroke-linejoin:round;marker:none;marker-start:none;marker-mid:none;marker-end:none;stroke-miterlimit:4;stroke-dasharray:none;stroke-dashoffset:0;stroke-opacity:1;visibility:visible;display:block;overflow:visible" id="path4164" d="M 38.276321,16.325703 L 43.469269,23.520364 L 3.9609455,23.520364 L 8.6250143,16.320763 L 38.276321,16.325703 z"/><path style="opacity:1;color:#000;fill:url(#linearGradient2274);fill-opacity:1;fill-rule:nonzero;stroke:#a0670c;stroke-width:1.00000048;stroke-linecap:round;stroke-linejoin:round;marker:none;marker-start:none;marker-mid:none;marker-end:none;stroke-miterlimit:4;stroke-dasharray:none;stroke-dashoffset:0;stroke-opacity:1;visibility:visible;display:block;overflow:visible" id="path4178" d="M 32.849333,9.6141009 L 37.532219,16.53637 L 46.565835,20.921197 L 38.451329,12.008545 L 32.849333,9.6141009 z"/><path id="path4180" d="M 13.617702,9.7151161 L 9.6419233,16.435355 L 0.50729183,20.820182 L 8.6217973,11.90753 L 13.617702,9.7151161 z" style="opacity:1;color:#000;fill:#f8e8cf;fill-opacity:1;fill-rule:nonzero;stroke:#a0670c;stroke-width:1;stroke-linecap:round;stroke-linejoin:round;marker:none;marker-start:none;marker-mid:none;marker-end:none;stroke-miterlimit:4;stroke-dasharray:none;stroke-dashoffset:0;stroke-opacity:1;visibility:visible;display:block;overflow:visible"/><path id="path4954" d="M 37.024959,16.43605 L 41.478871,22.493011 L 5.6482792,22.493011 L 9.7892982,16.312694 L 37.024959,16.43605 z" style="opacity:1;color:#000;fill:none;fill-opacity:1;fill-rule:nonzero;stroke:#f4e3ca;stroke-width:1;stroke-linecap:butt;stroke-linejoin:miter;marker:none;marker-start:none;marker-mid:none;marker-end:none;stroke-miterlimit:4;stroke-dasharray:none;stroke-dashoffset:0;stroke-opacity:1;visibility:visible;display:block;overflow:visible"/><g id="g2892" transform="matrix(0.676538,0,0,1,3.994869,0)"><path id="path2882" d="M 23.926073,12.101621 C 18.588065,12.101621 14.282569,14.129809 14.282569,16.641813 L 33.604773,16.641813 C 33.604773,14.129809 29.264081,12.101621 23.926073,12.101621 z" style="opacity:1;color:#000;fill:url(#radialGradient2896);fill-opacity:1;fill-rule:evenodd;stroke:none;stroke-width:2;stroke-linecap:round;stroke-linejoin:round;marker:none;marker-start:none;marker-mid:none;marker-end:none;stroke-miterlimit:4;stroke-dasharray:none;stroke-dashoffset:0;stroke-opacity:1;visibility:visible;display:inline;overflow:visible"/><path style="opacity:1;color:#000;fill:url(#radialGradient2898);fill-opacity:1;fill-rule:evenodd;stroke:none;stroke-width:2;stroke-linecap:round;stroke-linejoin:round;marker:none;marker-start:none;marker-mid:none;marker-end:none;stroke-miterlimit:4;stroke-dasharray:none;stroke-dashoffset:0;stroke-opacity:1;visibility:visible;display:inline;overflow:visible" id="path2141" d="M 23.931961,12.861168 C 20.379986,12.861168 17.515057,14.210748 17.515057,15.882266 L 30.372285,15.882266 C 30.372285,14.210748 27.483936,12.861168 23.931961,12.861168 z"/></g><g id="g2900" transform="matrix(0.676538,0,0,1,10.49487,0)"><path style="opacity:1;color:#000;fill:url(#radialGradient2906);fill-opacity:1;fill-rule:evenodd;stroke:none;stroke-width:2;stroke-linecap:round;stroke-linejoin:round;marker:none;marker-start:none;marker-mid:none;marker-end:none;stroke-miterlimit:4;stroke-dasharray:none;stroke-dashoffset:0;stroke-opacity:1;visibility:visible;display:inline;overflow:visible" id="path2902" d="M 23.926073,12.101621 C 18.588065,12.101621 14.282569,14.129809 14.282569,16.641813 L 33.604773,16.641813 C 33.604773,14.129809 29.264081,12.101621 23.926073,12.101621 z"/><path id="path2904" d="M 23.931961,12.861168 C 20.379986,12.861168 17.515057,14.210748 17.515057,15.882266 L 30.372285,15.882266 C 30.372285,14.210748 27.483936,12.861168 23.931961,12.861168 z" style="opacity:1;color:#000;fill:url(#radialGradient2908);fill-opacity:1;fill-rule:evenodd;stroke:none;stroke-width:2;stroke-linecap:round;stroke-linejoin:round;marker:none;marker-start:none;marker-mid:none;marker-end:none;stroke-miterlimit:4;stroke-dasharray:none;stroke-dashoffset:0;stroke-opacity:1;visibility:visible;display:inline;overflow:visible"/></g><path id="path4966" d="M 9.6523127,16.371803 L 13.036643,10.59302 L 33.514841,10.517799 L 37.356782,16.36988 L 9.6523127,16.371803 z" style="opacity:.87974686;fill:none;fill-opacity:1;fill-rule:evenodd;stroke:url(#linearGradient2269);stroke-width:1;stroke-linecap:round;stroke-linejoin:round;stroke-miterlimit:4;stroke-dasharray:none;stroke-opacity:1"/></g></svg>