<svg xmlns="http://www.w3.org/2000/svg" xmlns:cc="http://web.resource.org/cc/" xmlns:svg="http://www.w3.org/2000/svg" xmlns:xlink="http://www.w3.org/1999/xlink" id="svg2" width="116" height="127" enable-background="new -.358 -.104 116 127" overflow="visible" viewBox="-0.358 -0.104 116 127" xml:space="preserve"><metadata id="metadata150"/><defs id="defs148"><linearGradient id="linearGradient895" x1="62.018" x2="62.018" y1="126.956" y2="156.859" gradientTransform="scale(1.140677,0.876672)" gradientUnits="userSpaceOnUse" xlink:href="#linearGradient924"/><linearGradient id="linearGradient912" x1="47.58" x2="33.108" y1="47.966" y2="9.772" gradientTransform="scale(1.489547,0.671345)" gradientUnits="userSpaceOnUse" xlink:href="#linearGradient1535"/><linearGradient id="linearGradient589" x1="60.486" x2="91.293" y1="51.147" y2="66.683" gradientTransform="scale(1.462494,0.683763)" gradientUnits="userSpaceOnUse" xlink:href="#linearGradient924"/><linearGradient id="linearGradient924"><stop id="stop925" offset="0" style="stop-color:#fff;stop-opacity:0"/><stop id="stop926" offset="1" style="stop-color:#fff;stop-opacity:1"/></linearGradient><linearGradient id="linearGradient957" x1="-50.782" x2="-49.435" y1="-16.103" y2="-44.896" gradientTransform="scale(1.077033,0.928477)" gradientUnits="userSpaceOnUse" xlink:href="#linearGradient924"/><linearGradient id="linearGradient676"><stop id="stop677" offset="0" style="stop-color:#000;stop-opacity:.30693069"/><stop id="stop678" offset="1" style="stop-color:#000;stop-opacity:0"/></linearGradient><linearGradient id="linearGradient682" x1="97.687" x2="73.896" y1="63.811" y2="128.033" gradientTransform="scale(1.096812,0.911733)" gradientUnits="userSpaceOnUse" xlink:href="#linearGradient676"/><linearGradient id="linearGradient955" x1="41.087" x2="44.964" y1="-21.951" y2="82.252" gradientTransform="scale(1.462494,0.683763)" gradientUnits="userSpaceOnUse" xlink:href="#linearGradient580"/><linearGradient id="linearGradient1535"><stop id="stop1536" offset="0" style="stop-color:#797979;stop-opacity:1"/><stop id="stop1537" offset="1" style="stop-color:#fff;stop-opacity:1"/></linearGradient><linearGradient id="linearGradient896" x1="74.959" x2="-3.704" y1="43.996" y2="5.24" gradientTransform="scale(1.453887,0.687811)" gradientUnits="userSpaceOnUse" xlink:href="#linearGradient1535"/><linearGradient id="linearGradient580"><stop id="stop581" offset="0" style="stop-color:#7e7e7e;stop-opacity:1"/><stop id="stop582" offset="1" style="stop-color:#fff;stop-opacity:1"/></linearGradient><linearGradient id="linearGradient937" x1="56.662" x2="21.955" y1="21.139" y2="6.767" gradientTransform="scale(1.453887,0.687811)" gradientUnits="userSpaceOnUse" xlink:href="#linearGradient580"/><linearGradient id="linearGradient683" x1="74.862" x2="67.955" y1="164.306" y2="142.778" gradientTransform="scale(1.085555,0.921188)" gradientUnits="userSpaceOnUse" xlink:href="#linearGradient1501"/><linearGradient id="linearGradient1501"><stop id="stop1502" offset="0" style="stop-color:#fff;stop-opacity:1"/><stop id="stop1504" offset="1" style="stop-color:#fff;stop-opacity:0"/></linearGradient><linearGradient id="linearGradient1002" x1="21.732" x2="44.177" y1="84.084" y2="129.19" gradientTransform="scale(1.085555,0.921188)" gradientUnits="userSpaceOnUse" xlink:href="#linearGradient1501"/><linearGradient id="linearGradient1661" x1="-50.782" x2="-49.435" y1="-16.103" y2="-44.896" gradientTransform="scale(1.077033,0.928477)" gradientUnits="userSpaceOnUse" xlink:href="#linearGradient924"/><linearGradient id="XMLID_4_" x1="-10.063" x2="121.257" y1="10.1" y2="10.1" gradientUnits="userSpaceOnUse"><stop id="stop37" offset="0" style="stop-color:#b3caff"/><stop id="stop39" offset="1" style="stop-color:#0053bd"/></linearGradient><linearGradient id="linearGradient1800" x1="21.732" x2="44.177" y1="84.084" y2="129.19" gradientTransform="scale(1.085555,0.921188)" gradientUnits="userSpaceOnUse" xlink:href="#linearGradient1501"/><linearGradient id="linearGradient1802" x1="74.862" x2="67.955" y1="164.306" y2="142.778" gradientTransform="scale(1.085555,0.921188)" gradientUnits="userSpaceOnUse" xlink:href="#linearGradient1501"/><linearGradient id="linearGradient1804" x1="56.662" x2="21.955" y1="21.139" y2="6.767" gradientTransform="scale(1.453887,0.687811)" gradientUnits="userSpaceOnUse" xlink:href="#linearGradient580"/><linearGradient id="linearGradient1806" x1="74.959" x2="-3.704" y1="43.996" y2="5.24" gradientTransform="scale(1.453887,0.687811)" gradientUnits="userSpaceOnUse" xlink:href="#linearGradient1535"/><linearGradient id="linearGradient1808" x1="41.087" x2="44.964" y1="-21.951" y2="82.252" gradientTransform="scale(1.462494,0.683763)" gradientUnits="userSpaceOnUse" xlink:href="#linearGradient580"/><linearGradient id="linearGradient1810" x1="97.687" x2="73.896" y1="63.811" y2="128.033" gradientTransform="scale(1.096812,0.911733)" gradientUnits="userSpaceOnUse" xlink:href="#linearGradient676"/><linearGradient id="linearGradient1812" x1="-50.782" x2="-49.435" y1="-16.103" y2="-44.896" gradientTransform="scale(1.077033,0.928477)" gradientUnits="userSpaceOnUse" xlink:href="#linearGradient924"/><linearGradient id="linearGradient1814" x1="60.486" x2="91.293" y1="51.147" y2="66.683" gradientTransform="scale(1.462494,0.683763)" gradientUnits="userSpaceOnUse" xlink:href="#linearGradient924"/><linearGradient id="linearGradient1816" x1="47.58" x2="33.108" y1="47.966" y2="9.772" gradientTransform="scale(1.489547,0.671345)" gradientUnits="userSpaceOnUse" xlink:href="#linearGradient1535"/><linearGradient id="linearGradient1818" x1="62.018" x2="62.018" y1="126.956" y2="156.859" gradientTransform="scale(1.140677,0.876672)" gradientUnits="userSpaceOnUse" xlink:href="#linearGradient924"/></defs><g id="g1820"><g id="g5"><path style="fill:#fff" id="path7" d="M 114.828,0.5 L 0.5,0.5 L 0.5,126.396 L 81.201,126.396 L 114.828,92.769 L 114.828,0.5 z"/><linearGradient id="XMLID_1_" x1="57.584" x2="57.584" y1="154.013" y2="-101.487" gradientUnits="userSpaceOnUse"><stop style="stop-color:#fff" id="stop10" offset="0"/><stop style="stop-color:#f6f6f6" id="stop12" offset=".246"/><stop style="stop-color:#dfdfdf" id="stop14" offset=".637"/><stop style="stop-color:#c4c4c4" id="stop16" offset="1"/></linearGradient><path style="fill:url(#XMLID_1_)" id="path18" d="M 111.398,3.467 L 3.93,3.467 L 3.77,126.121 L 80.227,126.121 L 111.399,94.869 L 111.399,3.467 L 111.398,3.467 z"/><linearGradient id="XMLID_2_" x1="-32.668" x2="49.83" y1="-26.884" y2="55.614" gradientUnits="userSpaceOnUse"><stop style="stop-color:#b2b2b2" id="stop21" offset="0"/><stop style="stop-color:#828282" id="stop23" offset="1"/></linearGradient><path style="fill:url(#XMLID_2_)" id="path25" d="M 114.828,0 L 0,0 L 0,126.896 L 81.408,126.896 L 115.328,92.976 L 115.328,0 L 114.828,0 z M 114.328,1 C 114.328,1.987 114.328,92.152 114.328,92.563 C 114.039,92.852 81.283,125.608 80.994,125.897 C 80.584,125.897 1.984,125.897 1,125.897 C 1,124.908 1,1.988 1,1 C 1.986,1 113.342,1 114.328,1 z"/><linearGradient id="XMLID_3_" x1="36.688" x2="197.672" y1="24.87" y2="110.514" gradientUnits="userSpaceOnUse"><stop style="stop-color:#fff" id="stop28" offset="0"/><stop style="stop-color:#dadada" id="stop30" offset=".86"/><stop style="stop-color:#d4d4d4" id="stop32" offset="1"/></linearGradient><path style="fill:url(#XMLID_3_)" id="path34" d="M 111.67,14.671 L 111.67,3.388 L 3.863,3.388 L 3.767,68.728 C 13.742,73.275 24.918,75.824 36.721,75.824 C 74.066,75.824 105.119,48.325 111.67,14.671 z"/></g><path style="fill:url(#XMLID_4_)" id="path41" d="M 111.356,16.471 L 3.972,16.471 L 3.972,3.728 L 111.357,3.728 L 111.357,16.471 L 111.356,16.471 z"/><path style="opacity:.1" id="path43" d="M 67.660667,103.81333 C 67.660667,112.37433 55.124667,119.31333 39.660667,119.31333 C 24.196667,119.31333 11.660667,112.37433 11.660667,103.81333 C 11.660667,95.252333 24.196667,88.313333 39.660667,88.313333 C 55.123667,88.313333 67.660667,95.253333 67.660667,103.81333 z"/><g id="g110"><radialGradient id="XMLID_12_" cx="102.131" cy="117.697" r="34.736" fx="102.131" fy="117.697" gradientUnits="userSpaceOnUse"><stop style="stop-color:#000" id="stop113" offset="0"/><stop style="stop-color:#000" id="stop115" offset="1"/></radialGradient><path style="opacity:.1;fill:url(#XMLID_12_)" id="path117" d="M 78.855,90.424 L 78.855,126.178 L 80.648,126.178 L 114.287,92.539 L 114.287,90.424 L 78.855,90.424 z"/><path style="fill:#fff" id="path119" d="M 81.201,126.396 L 114.828,92.769 L 81.201,92.769 L 81.201,126.396 z"/><linearGradient id="XMLID_13_" x1="97.681" x2="88.752" y1="97.629" y2="135.242" gradientUnits="userSpaceOnUse"><stop style="stop-color:#fff" id="stop122" offset="0"/><stop style="stop-color:#ccc" id="stop124" offset="1"/></linearGradient><path style="fill:url(#XMLID_13_)" id="path126" d="M 83.529,124.504 L 113.123,94.912 L 83.529,94.912 L 83.529,124.504 z"/><linearGradient id="XMLID_14_" x1="75.973" x2="89.768" y1="87.541" y2="101.337" gradientUnits="userSpaceOnUse"><stop style="stop-color:#b2b2b2" id="stop129" offset="0"/><stop style="stop-color:#828282" id="stop131" offset="1"/></linearGradient><path style="fill:url(#XMLID_14_)" id="path133" d="M 81.201,92.27 C 80.924,92.27 80.701,92.493 80.701,92.77 L 80.701,126.397 C 80.701,126.6 80.822,126.782 81.01,126.86 C 81.196,126.936 81.412,126.893 81.555,126.751 L 115.182,93.124 C 115.325,92.979 115.368,92.765 115.291,92.579 C 115.213,92.391 115.031,92.27 114.828,92.27 L 81.201,92.27 z M 113.621,93.27 C 112.041,94.848 83.279,123.61 81.701,125.19 C 81.701,122.981 81.701,94.204 81.701,93.27 C 82.635,93.27 111.412,93.27 113.621,93.27 z"/></g><g id="g135"><path style="fill:#fff" id="path137" d="M 6.563,12.1 L 8.251,11.928 C 8.353,12.492 8.559,12.907 8.869,13.172 C 9.179,13.437 9.598,13.569 10.126,13.569 C 10.685,13.569 11.105,13.451 11.389,13.215 C 11.672,12.98 11.814,12.704 11.814,12.389 C 11.814,12.186 11.754,12.014 11.636,11.872 C 11.518,11.73 11.31,11.606 11.014,11.501 C 10.811,11.431 10.35,11.306 9.63,11.126 C 8.703,10.896 8.053,10.613 7.68,10.276 C 7.155,9.803 6.892,9.226 6.892,8.545 C 6.892,8.107 7.016,7.697 7.263,7.316 C 7.51,6.936 7.866,6.646 8.331,6.446 C 8.796,6.246 9.358,6.147 10.016,6.147 C 11.091,6.147 11.9,6.385 12.443,6.862 C 12.986,7.339 13.271,7.976 13.298,8.772 L 11.564,8.835 C 11.49,8.39 11.332,8.07 11.089,7.876 C 10.846,7.682 10.483,7.584 9.998,7.584 C 9.497,7.584 9.105,7.688 8.822,7.896 C 8.639,8.029 8.548,8.208 8.548,8.432 C 8.548,8.636 8.634,8.81 8.805,8.955 C 9.023,9.14 9.553,9.331 10.394,9.53 C 11.235,9.728 11.857,9.934 12.26,10.148 C 12.663,10.361 12.979,10.653 13.206,11.022 C 13.434,11.392 13.548,11.849 13.548,12.393 C 13.548,12.886 13.411,13.348 13.138,13.778 C 12.865,14.209 12.478,14.528 11.978,14.738 C 11.478,14.948 10.855,15.052 10.109,15.052 C 9.023,15.052 8.189,14.801 7.607,14.298 C 7.025,13.795 6.677,13.063 6.563,12.1 z"/><path style="fill:#fff" id="path139" d="M 14.661,10.652 C 14.661,9.775 14.792,9.039 15.054,8.443 C 15.249,8.005 15.515,7.611 15.853,7.262 C 16.19,6.913 16.561,6.655 16.963,6.487 C 17.498,6.26 18.114,6.146 18.814,6.146 C 20.079,6.146 21.091,6.54 21.851,7.327 C 22.611,8.114 22.99,9.209 22.99,10.611 C 22.99,12.002 22.613,13.09 21.86,13.875 C 21.107,14.66 20.099,15.053 18.838,15.053 C 17.561,15.053 16.546,14.662 15.793,13.881 C 15.04,13.1 14.661,12.023 14.661,10.652 z M 16.442,10.594 C 16.442,11.57 16.667,12.31 17.118,12.813 C 17.568,13.316 18.14,13.568 18.834,13.568 C 19.528,13.568 20.096,13.318 20.541,12.818 C 20.985,12.318 21.208,11.569 21.208,10.569 C 21.208,9.582 20.991,8.844 20.559,8.359 C 20.127,7.874 19.551,7.63 18.834,7.63 C 18.117,7.63 17.539,7.876 17.101,8.368 C 16.662,8.86 16.442,9.603 16.442,10.594 z"/><path style="fill:#fff" id="path141" d="M 24.354,6.303 L 26.088,6.303 L 26.088,10.963 C 26.088,11.702 26.109,12.182 26.152,12.401 C 26.226,12.754 26.402,13.036 26.681,13.249 C 26.96,13.462 27.341,13.569 27.825,13.569 C 28.316,13.569 28.686,13.468 28.936,13.267 C 29.185,13.065 29.335,12.818 29.386,12.524 C 29.437,12.231 29.462,11.744 29.462,11.063 L 29.462,6.303 L 31.196,6.303 L 31.196,10.822 C 31.196,11.855 31.149,12.585 31.055,13.011 C 30.961,13.437 30.788,13.797 30.537,14.091 C 30.286,14.385 29.949,14.618 29.527,14.793 C 29.106,14.967 28.555,15.054 27.876,15.054 C 27.056,15.054 26.435,14.959 26.011,14.769 C 25.587,14.579 25.253,14.333 25.007,14.03 C 24.761,13.727 24.6,13.409 24.522,13.076 C 24.409,12.583 24.352,11.855 24.352,10.892 L 24.352,6.303 L 24.354,6.303 z"/><path style="fill:#fff" id="path143" d="M 33.021,14.896 L 33.021,6.303 L 34.707,6.303 L 38.24,12.059 L 38.24,6.303 L 39.849,6.303 L 39.849,14.897 L 38.11,14.897 L 34.631,9.257 L 34.631,14.897 L 33.021,14.897 L 33.021,14.896 z"/><path style="fill:#fff" id="path145" d="M 41.687,6.303 L 44.858,6.303 C 45.573,6.303 46.118,6.358 46.493,6.467 C 46.997,6.615 47.429,6.88 47.788,7.259 C 48.147,7.638 48.421,8.102 48.609,8.651 C 48.797,9.2 48.89,9.878 48.89,10.682 C 48.89,11.39 48.802,11.999 48.626,12.511 C 48.411,13.136 48.105,13.642 47.706,14.029 C 47.405,14.322 46.998,14.551 46.486,14.715 C 46.103,14.836 45.591,14.897 44.951,14.897 L 41.686,14.897 L 41.686,6.303 L 41.687,6.303 z M 43.421,7.756 L 43.421,13.444 L 44.721,13.444 C 45.207,13.444 45.558,13.417 45.774,13.362 C 46.056,13.292 46.291,13.173 46.477,13.005 C 46.663,12.837 46.815,12.561 46.933,12.176 C 47.051,11.792 47.11,11.267 47.11,10.603 C 47.11,9.939 47.051,9.43 46.933,9.074 C 46.816,8.719 46.651,8.442 46.439,8.242 C 46.227,8.043 45.959,7.908 45.633,7.838 C 45.39,7.783 44.913,7.756 44.204,7.756 L 43.421,7.756 z"/></g><g id="g1599" transform="matrix(0.619671,0,0,0.54052,1.575157,21.01477)"><path id="path2493" d="M 18.538813,95.503067 C 18.538813,95.503067 11.250244,122.94371 15.216879,131.55682 C 19.279891,140.37918 41.705471,156.6236 52.449678,155.77483 C 63.19388,154.92607 89.097398,144.99965 87.847285,140.37635 C 86.597187,135.75307 28.384785,81.250881 18.538813,95.503067 z" style="fill:#b2b2b2;fill-opacity:1;fill-rule:evenodd;stroke-width:.96516266pt"/><path id="path2526" d="M 19.032318,105.23958 C 19.032318,105.23958 12.003732,131.70142 15.828878,140.00731 C 19.746963,148.51496 41.372625,164.17994 51.733588,163.36145 C 62.094546,162.54297 87.074085,152.97063 85.868569,148.51224 C 84.663063,144.05387 28.527086,91.495761 19.032318,105.23958 z" style="fill:url(#linearGradient1800);fill-opacity:1;fill-rule:evenodd;stroke-width:.96516266pt"/><path id="path2522" d="M 20.947866,94.620708 C 20.947866,94.620708 13.91928,121.08255 17.744426,129.38844 C 21.662511,137.89609 43.288173,153.56107 53.649136,152.74258 C 64.010094,151.9241 88.989633,142.35176 87.784117,137.89337 C 86.578611,133.435 30.442634,80.876895 20.947866,94.620708 z" style="fill:url(#linearGradient1802);fill-opacity:1;fill-rule:evenodd;stroke-width:.96516266pt"/><path id="path2494" d="M 119.40737 22.874117 A 59.318501 27.733324 0 1 1 0.77037048,22.874117 A 59.318501 27.733324 0 1 1 119.40737 22.874117 z" transform="matrix(0.897553,0.620065,-0.620065,0.897553,23.163,48.58501)" style="fill:url(#linearGradient1804);fill-rule:evenodd;stroke:url(#linearGradient1806);stroke-width:1pt;stroke-opacity:1"/><path id="path2492" d="M 119.40737 22.874117 A 59.318501 27.733324 0 1 1 0.77037048,22.874117 A 59.318501 27.733324 0 1 1 119.40737 22.874117 z" transform="matrix(0.822757,0.568393,-0.568393,0.822757,28.22695,50.86551)" style="fill:url(#linearGradient1808);fill-rule:evenodd;stroke-width:1pt"/><path id="path2500" d="M 14.356562,73.911928 C 25.296377,57.928028 54.533092,58.972598 87.344801,87.577668 C 120.1565,116.18275 121.22746,133.44475 110.47481,144.58073 C 99.402321,156.04793 80.288221,147.78551 48.9936,124.84291 C 18.410806,102.42218 8.9853838,81.759628 14.356562,73.911928 z" style="fill:url(#linearGradient1810);fill-opacity:1;fill-rule:evenodd;stroke-width:1pt"/><g id="g2545" transform="matrix(0.736413,0,0,0.736413,72.11487,-8.189509)"><path id="path2873" d="M -32.385689 -23.926258 A 21.692299 12.221014 0 1 1 -75.770287,-23.926258 A 21.692299 12.221014 0 1 1 -32.385689 -23.926258 z" transform="matrix(1.141421,0,0,1.141421,122.7349,153.3442)" style="fill-rule:evenodd;stroke-width:1pt"/><path id="path2875" d="M -36.66304 -17.81575 A 17.72047 15.276267 0 1 1 -72.103981,-17.81575 A 17.72047 15.276267 0 1 1 -36.66304 -17.81575 z" transform="matrix(1.203469,0,0,0.798995,126.5113,139.9203)" style="fill:url(#linearGradient1661);fill-opacity:1;fill-rule:evenodd;stroke-width:1pt"/><path id="path2877" d="M -35.6875,-125.78125 L -35.6875,-122.3125 L -35.6875,-25.15625 L -30.3125,-25.15625 L -30.3125,-118.65625 C -27.25842,-117.70855 -22.760805,-116.1642 -18.03125,-113.53125 C -14.539756,-111.58753 -11.569043,-109.20358 -10.3125,-107.03125 C -9.0559575,-104.85892 -8.8763524,-103.19402 -11.28125,-100.15625 C -17.618541,-92.151251 -18.188663,-83.348403 -16.5,-76.59375 C -15.655668,-73.216424 -14.280636,-70.324106 -12.75,-68.09375 C -11.219364,-65.863394 -9.813884,-64.170039 -7.46875,-63.5 C -7.46875,-63.5 -13.617086,-73.959242 -13.419927,-80.350453 C -13.222769,-86.741663 -12.335172,-90.152282 -7.0625,-96.8125 C -3.662416,-101.10734 -3.5329184,-106.04791 -5.65625,-109.71875 C -7.7795816,-113.38959 -11.488754,-116.06913 -15.40625,-118.25 C -23.241242,-122.61175 -32.3125,-124.90625 -32.3125,-124.90625 L -35.6875,-125.78125 z" transform="translate(116.0996,150.8247)" style="fill-rule:evenodd;stroke-width:5.375"/></g><g id="g2479" transform="matrix(0.534667,0,0,0.534667,53.40688,-9.940953)"><path id="path2480" d="M -32.385689 -23.926258 A 21.692299 12.221014 0 1 1 -75.770287,-23.926258 A 21.692299 12.221014 0 1 1 -32.385689 -23.926258 z" transform="matrix(1.141421,0,0,1.141421,122.7349,153.3442)" style="fill-rule:evenodd;stroke-width:1pt"/><path id="path2481" d="M -36.66304 -17.81575 A 17.72047 15.276267 0 1 1 -72.103981,-17.81575 A 17.72047 15.276267 0 1 1 -36.66304 -17.81575 z" transform="matrix(1.203469,0,0,0.798995,126.5113,139.9203)" style="fill:url(#linearGradient1812);fill-opacity:1;fill-rule:evenodd;stroke-width:1pt"/><path id="path2482" d="M -35.6875,-125.78125 L -35.6875,-122.3125 L -35.6875,-25.15625 L -30.3125,-25.15625 L -30.3125,-118.65625 C -27.25842,-117.70855 -22.760805,-116.1642 -18.03125,-113.53125 C -14.539756,-111.58753 -11.569043,-109.20358 -10.3125,-107.03125 C -9.0559575,-104.85892 -8.8763524,-103.19402 -11.28125,-100.15625 C -17.618541,-92.151251 -18.188663,-83.348403 -16.5,-76.59375 C -15.655668,-73.216424 -14.280636,-70.324106 -12.75,-68.09375 C -11.219364,-65.863394 -9.813884,-64.170039 -7.46875,-63.5 C -7.46875,-63.5 -13.617086,-73.959242 -13.419927,-80.350453 C -13.222769,-86.741663 -12.335172,-90.152282 -7.0625,-96.8125 C -3.662416,-101.10734 -3.5329184,-106.04791 -5.65625,-109.71875 C -7.7795816,-113.38959 -11.488754,-116.06913 -15.40625,-118.25 C -23.241242,-122.61175 -32.3125,-124.90625 -32.3125,-124.90625 L -35.6875,-125.78125 z" transform="translate(116.0996,150.8247)" style="fill-rule:evenodd;stroke-width:5.375"/></g><path id="path2524" d="M 119.40737 22.874117 A 59.318501 27.733324 0 1 1 0.77037048,22.874117 A 59.318501 27.733324 0 1 1 119.40737 22.874117 z" transform="matrix(0.822757,0.568393,-0.568393,0.822757,29.16501,50.44565)" style="fill:url(#linearGradient1814);fill-rule:evenodd;stroke-width:1pt"/><path id="path2491" d="M 84.740713 18.251896 A 27.348139 12.325922 0 1 1 30.044436,18.251896 A 27.348139 12.325922 0 1 1 84.740713 18.251896 z" transform="matrix(0.85695,0.592015,-0.592015,0.85695,20.95734,59.90267)" style="fill:url(#linearGradient1816);fill-opacity:1;fill-rule:evenodd;stroke-width:1pt"/><path id="path2521" d="M 45.122943,96.038656 C 39.789238,102.60669 52.117671,117.74553 63.311741,121.92991 C 75.703797,126.5621 88.890609,124.13881 79.764813,113.29949 C 70.76728,102.61251 50.578598,89.320455 45.122943,96.038656 z" style="fill:url(#linearGradient1818);fill-opacity:1;fill-rule:evenodd;stroke-width:1pt"/></g></g></svg>