<svg xmlns="http://www.w3.org/2000/svg" xmlns:xlink="http://www.w3.org/1999/xlink" width="128" height="128" enable-background="new 0 0 128 128" overflow="visible" viewBox="0 0 128 128" xml:space="preserve"><g id="Layer_1"><g><g><path fill="#FFF" d="M121.164,1.052H6.836v125.896h80.701l33.627-33.627V1.052z"/><linearGradient id="XMLID_1_" x1="63.92" x2="63.92" y1="154.565" y2="-100.935" gradientUnits="userSpaceOnUse"><stop offset="0" style="stop-color:#fff"/><stop offset=".246" style="stop-color:#f6f6f6"/><stop offset=".637" style="stop-color:#dfdfdf"/><stop offset="1" style="stop-color:#c4c4c4"/></linearGradient><path fill="url(#XMLID_1_)" d="M117.734,4.019H10.266l-0.16,122.654h76.457l31.172-31.252V4.019z"/><linearGradient id="XMLID_2_" x1="-26.333" x2="56.166" y1="-26.333" y2="56.166" gradientUnits="userSpaceOnUse"><stop offset="0" style="stop-color:#b3b3b3"/><stop offset="1" style="stop-color:#828282"/></linearGradient><path fill="url(#XMLID_2_)" d="M121.164,0.552H6.336v126.896h81.408l33.92-33.92V0.552H121.164z M120.664,1.552 c0,0.987,0,91.152,0,91.562c-0.289,0.289-33.045,33.045-33.334,33.334c-0.41,0-79.01,0-79.994,0c0-0.988,0-123.909,0-124.896 C8.322,1.552,119.678,1.552,120.664,1.552z"/><linearGradient id="XMLID_3_" x1="43.023" x2="204.007" y1="25.421" y2="111.065" gradientUnits="userSpaceOnUse"><stop offset="0" style="stop-color:#fff"/><stop offset=".86" style="stop-color:#dadada"/><stop offset="1" style="stop-color:#d4d4d4"/></linearGradient><path fill="url(#XMLID_3_)" d="M118.006,15.223V3.94H10.199l-0.096,65.34c9.975,4.547,21.151,7.096,32.954,7.096 C80.402,76.376,111.455,48.876,118.006,15.223z"/></g><linearGradient id="XMLID_4_" x1="-3.728" x2="127.593" y1="10.651" y2="10.651" gradientUnits="userSpaceOnUse"><stop offset="0" style="stop-color:#b3caff"/><stop offset="1" style="stop-color:#0053bd"/></linearGradient><path fill="url(#XMLID_4_)" d="M117.692,17.023H10.308V4.279h107.385V17.023z"/><g><radialGradient id="XMLID_5_" cx="108.467" cy="118.249" r="34.736" fx="108.467" fy="118.249" gradientUnits="userSpaceOnUse"><stop offset="0" style="stop-color:#000"/><stop offset="1" style="stop-color:#000"/></radialGradient><path fill="url(#XMLID_5_)" d="M85.191,90.976v35.754h1.793l33.639-33.639v-2.115H85.191z" opacity=".1"/><path fill="#FFF" d="M87.537,126.948l33.627-33.627H87.537V126.948z"/><linearGradient id="XMLID_6_" x1="104.017" x2="95.088" y1="98.181" y2="135.794" gradientUnits="userSpaceOnUse"><stop offset="0" style="stop-color:#fff"/><stop offset="1" style="stop-color:#ccc"/></linearGradient><path fill="url(#XMLID_6_)" d="M89.865,125.056l29.594-29.592H89.865V125.056z"/><linearGradient id="XMLID_7_" x1="82.309" x2="96.104" y1="88.093" y2="101.888" gradientUnits="userSpaceOnUse"><stop offset="0" style="stop-color:#b3b3b3"/><stop offset="1" style="stop-color:#828282"/></linearGradient><path fill="url(#XMLID_7_)" d="M87.537,92.821c-0.277,0-0.5,0.223-0.5,0.5v33.627c0,0.203,0.121,0.385,0.309,0.463 c0.186,0.076,0.402,0.033,0.545-0.109l33.627-33.627c0.143-0.145,0.186-0.359,0.109-0.545c-0.078-0.188-0.26-0.309-0.463-0.309 H87.537z M119.957,93.821c-1.58,1.578-30.342,30.34-31.92,31.92c0-2.209,0-30.986,0-31.92 C88.971,93.821,117.748,93.821,119.957,93.821z"/></g><g><linearGradient id="XMLID_8_" x1="85.302" x2="41.845" y1="89.571" y2="46.114" gradientUnits="userSpaceOnUse"><stop offset="0" style="stop-color:#ffe692"/><stop offset="1" style="stop-color:#ffffdc"/></linearGradient><path fill="url(#XMLID_8_)" d="M28.555,81.263v-36.18l37.352-20.586L95.83,51.662V87.63l-37.775,20.585L28.555,81.263z"/><linearGradient id="XMLID_9_" x1="88.085" x2="40.494" y1="92.355" y2="44.764" gradientUnits="userSpaceOnUse"><stop offset="0" style="stop-color:#744426"/><stop offset="1" style="stop-color:#de972b"/></linearGradient><path fill="url(#XMLID_9_)" d="M65.446,23.661L28.094,44.246c-0.305,0.168-0.493,0.488-0.493,0.836v36.18 c0,0.269,0.111,0.523,0.31,0.705l29.5,26.953c0.301,0.275,0.743,0.329,1.101,0.134l37.775-20.586 c0.309-0.167,0.5-0.489,0.5-0.839V51.662c0-0.269-0.113-0.525-0.312-0.707L66.549,23.789 C66.245,23.515,65.803,23.464,65.446,23.661z M65.77,25.663c0.966,0.877,28.503,25.875,29.106,26.421c0,0.816,0,33.888,0,34.979 c-0.955,0.52-35.537,19.365-36.681,19.988c-0.961-0.879-28.086-25.664-28.684-26.21c0-0.812,0-34.111,0-35.195 C30.457,45.125,64.629,26.292,65.77,25.663z"/><linearGradient id="XMLID_10_" x1="53.9" x2="32.111" y1="108.346" y2="36.189" gradientUnits="userSpaceOnUse"><stop offset="0" style="stop-color:#ffb82d"/><stop offset="1" style="stop-color:#ffffdc"/></linearGradient><path fill="url(#XMLID_10_)" d="M58.114,73.658l0.021,31.491L30.503,80.678l-0.025-33.994l26.253,23.25 c0,0,0.882,0.646,1.141,1.752C58.132,72.79,58.114,73.658,58.114,73.658z"/><linearGradient id="XMLID_11_" x1="49.556" x2="87.605" y1="62.829" y2="85.512" gradientUnits="userSpaceOnUse"><stop offset="0" style="stop-color:#ffa221"/><stop offset="1" style="stop-color:#ffe192"/></linearGradient><path fill="url(#XMLID_11_)" d="M59.464,73.985l-0.023,31.49l34.832-18.733l0.025-33.993L60.893,70.26 c0,0-0.913,0.647-1.181,1.752C59.443,73.117,59.464,73.985,59.464,73.985z"/><linearGradient id="XMLID_12_" x1="62.388" x2="62.388" y1="74.371" y2="36.49" gradientUnits="userSpaceOnUse"><stop offset="0" style="stop-color:#ffac2d"/><stop offset="1" style="stop-color:#ffffdc"/></linearGradient><path fill="url(#XMLID_12_)" d="M65.658,26.496L93.554,52.14L60.884,69.263c0,0-1.26,0.424-2.066,0.349 c-0.807-0.074-1.791-0.889-1.791-0.889L31.221,45.613L65.658,26.496z"/><linearGradient id="XMLID_13_" x1="80.296" x2="64.229" y1="64.916" y2="48.849" gradientUnits="userSpaceOnUse"><stop offset="0" style="stop-color:#744426"/><stop offset="1" style="stop-color:#de972b"/></linearGradient><path fill="url(#XMLID_13_)" d="M58.992,70.326l5.236-25.838l30.152,7.799l-29.395-1.828L58.992,70.326z" opacity=".8"/><linearGradient id="XMLID_14_" x1="73.049" x2="61.824" y1="42.362" y2="39.339" gradientUnits="userSpaceOnUse"><stop offset="0" style="stop-color:#744426"/><stop offset="1" style="stop-color:#de972b"/></linearGradient><path fill="url(#XMLID_14_)" d="M65.009,26.032l-0.78,18.456l-33.272,0.706l31.608-1.985L65.009,26.032z" opacity=".7"/></g><g><path fill="#FFF" d="M14.619,15.221V8.081h-2.531V6.627h6.797v1.453h-2.531v7.141H14.619z"/><path fill="#FFF" d="M26.871,15.221h-1.867l-0.745-1.953h-3.447l-0.706,1.953h-1.859l3.305-8.594h1.857L26.871,15.221z M23.687,11.815l-1.199-3.188l-1.152,3.188H23.687z"/><path fill="#FFF" d="M27.787,15.221V6.627h3.646c0.916,0,1.582,0.077,1.998,0.231c0.415,0.154,0.748,0.429,0.998,0.823 s0.375,0.845,0.375,1.352c0,0.645-0.188,1.176-0.565,1.596c-0.376,0.419-0.94,0.684-1.689,0.793 c0.373,0.219,0.682,0.46,0.925,0.723c0.243,0.262,0.571,0.728,0.984,1.397l1.048,1.679h-2.074l-1.245-1.874 c-0.446-0.669-0.751-1.091-0.916-1.265c-0.164-0.174-0.338-0.293-0.522-0.358c-0.184-0.064-0.476-0.097-0.874-0.097h-0.353 v3.594H27.787z M29.521,10.252h1.282c0.831,0,1.35-0.035,1.557-0.105c0.207-0.07,0.368-0.19,0.485-0.362 c0.117-0.171,0.176-0.385,0.176-0.642c0-0.288-0.077-0.52-0.231-0.698c-0.154-0.177-0.372-0.289-0.652-0.335 c-0.141-0.02-0.562-0.029-1.264-0.029h-1.352V10.252z"/></g></g><path fill="none" d="M128,128H0V0h128V128z"/></g></svg>