<svg xmlns="http://www.w3.org/2000/svg" xmlns:xlink="http://www.w3.org/1999/xlink" width="115" height="127" enable-background="new .164 -.104 115 127" overflow="visible" viewBox="0.164 -0.104 115 127" xml:space="preserve"><g id="Layer_1_2_"><g><path d="M114.828 0.5 L0.5 0.5 L0.5 126.396 L81.201 126.396 L114.828 92.769 z" style="fill:#fff"/><linearGradient id="XMLID_1_" x1="57.584" x2="57.584" y1="154.013" y2="-101.487" gradientUnits="userSpaceOnUse"><stop offset="0" style="stop-color:#fff"/><stop offset=".246" style="stop-color:#f6f6f6"/><stop offset=".637" style="stop-color:#dfdfdf"/><stop offset="1" style="stop-color:#c4c4c4"/></linearGradient><path d="M111.398 3.467 L3.93 3.467 L3.77 126.121 L80.227 126.121 L111.399 94.869 L111.399 3.467 z" style="fill:url(#XMLID_1_)"/><linearGradient id="XMLID_2_" x1="-32.669" x2="49.83" y1="-26.885" y2="55.614" gradientUnits="userSpaceOnUse"><stop offset="0" style="stop-color:#b2b2b2"/><stop offset="1" style="stop-color:#828282"/></linearGradient><path d="M114.828 0 L0 0 L0 126.896 L81.408 126.896 L115.328 92.976 L115.328 0 zM114.328 1 C114.328 1.987 114.328 92.152 114.328 92.563 C114.039 92.852 81.283 125.608 80.994 125.897 C80.584 125.897 1.984 125.897 1 125.897 C1 124.908 1 1.988 1 1 C1.986 1 113.342 1 114.328 1 z" style="fill:url(#XMLID_2_)"/><linearGradient id="XMLID_3_" x1="36.687" x2="197.673" y1="24.87" y2="110.514" gradientUnits="userSpaceOnUse"><stop offset="0" style="stop-color:#fff"/><stop offset=".86" style="stop-color:#dadada"/><stop offset="1" style="stop-color:#d4d4d4"/></linearGradient><path d="M111.67 14.671 L111.67 3.388 L3.863 3.388 L3.767 68.728 C13.742 73.275 24.918 75.824 36.721 75.824 C74.066 75.824 105.119 48.325 111.67 14.671 z" style="fill:url(#XMLID_3_)"/><linearGradient id="XMLID_4_" x1="3.893" x2="111.277" y1="10.1" y2="10.1" gradientUnits="userSpaceOnUse"><stop offset="0" style="stop-color:#00929a"/><stop offset=".792" style="stop-color:#004e4e"/></linearGradient><path d="M111.277 16.471 L3.893 16.471 L3.893 3.728 L111.277 3.728 z" style="fill:url(#XMLID_4_)"/><g><path d="M7.039 14.396 L7.039 5.803 L8.725 5.803 L12.258 11.559 L12.258 5.803 L13.867 5.803 L13.867 14.397 L12.128 14.397 L8.649 8.757 L8.649 14.397 L7.039 14.397 z" style="fill:#fff"/><path d="M15.705 14.396 L15.705 5.803 L22.064 5.803 L22.064 7.256 L17.439 7.256 L17.439 9.162 L21.736 9.162 L21.736 10.615 L17.439 10.615 L17.439 12.943 L22.236 12.943 L22.236 14.396 z" style="fill:#fff"/><path d="M25.646 14.396 L25.646 7.256 L23.115 7.256 L23.115 5.803 L29.912 5.803 L29.912 7.256 L27.381 7.256 L27.381 14.397 L25.646 14.397 z" style="fill:#fff"/></g><g><radialGradient id="XMLID_5_" cx="56.33" cy="102.812" r="75.353" fx="56.33" fy="102.812" gradientUnits="userSpaceOnUse"><stop offset="0" style="stop-color:#fff"/><stop offset=".332" style="stop-color:#00d9d4"/><stop offset=".792" style="stop-color:#004e4e"/></radialGradient><path d="M56.855 105.398 C35.173 105.398 17.536 87.761 17.536 66.082 C17.536 44.402 35.173 26.763 56.855 26.763 C78.535 26.763 96.175 44.402 96.175 66.082 C96.176 87.762 78.535 105.398 56.855 105.398 z" style="fill:url(#XMLID_5_)"/><linearGradient id="XMLID_6_" x1="56.855" x2="56.855" y1="173.494" y2="71.439" gradientUnits="userSpaceOnUse"><stop offset="0%" style="stop-opacity:1;stop-color:#fff"/><stop offset="97.701%" style="stop-opacity:0;stop-color:#fff"/></linearGradient><path d="M56.855 28.032 C35.84 28.032 18.807 45.068 18.807 66.082 C18.807 87.098 35.84 104.131 56.855 104.131 C77.867 104.131 94.902 87.098 94.902 66.082 C94.902 45.068 77.867 28.032 56.855 28.032 zM56.855 102.316 C36.873 102.316 20.618 86.062 20.618 66.082 C20.618 46.101 36.872 29.845 56.855 29.845 C76.835 29.845 93.091 46.101 93.091 66.082 C93.092 86.063 76.836 102.316 56.855 102.316 z" style="fill:url(#XMLID_6_)"/><path d="M55.857 102.609 C69.996 103.089 82.678 96.205 90.125 85.464 C79.305 76.782 63.339 70.997 45.394 70.388 C35.879 70.066 26.823 71.234 18.714 73.583 C23.187 89.797 37.963 102.002 55.857 102.609 z" style="fill:#fff"/><radialGradient id="XMLID_7_" cx="109.114" cy="145.068" r="60.287" fx="109.114" fy="145.068" gradientTransform="matrix(1.4768 0 0 1 -120.623 0)" gradientUnits="userSpaceOnUse"><stop offset="0" style="stop-color:#fff"/><stop offset="1" style="stop-color:#000"/></radialGradient><path d="M56.855 105.398 C70.808 105.398 83.078 98.087 90.058 87.101 C79.103 78.792 63.172 73.55 45.465 73.55 C36.076 73.55 27.188 75.025 19.275 77.648 C24.226 93.701 39.198 105.398 56.855 105.398 z" style="fill:url(#XMLID_7_)"/><linearGradient id="XMLID_8_" x1="55.391" x2="55.391" y1="30.969" y2="69.816" gradientUnits="userSpaceOnUse"><stop offset="3.448%" style="stop-color:#fff"/><stop offset="100%" style="stop-opacity:0;stop-color:#fff"/></linearGradient><path d="M56.696 67.313 C70.945 56.488 84.343 52.819 90.218 51.655 C84.562 38.548 71.798 29.404 56.951 29.404 C36.854 29.404 20.562 46.154 20.562 66.809 C20.562 70.055 20.966 73.202 21.722 76.205 C27.618 77.322 42.035 78.445 56.696 67.313 z" style="fill:url(#XMLID_8_)"/><linearGradient id="XMLID_9_" x1="56.691" x2="56.691" y1="124.861" y2="75.546" gradientUnits="userSpaceOnUse"><stop offset="0" style="stop-color:#fff"/><stop offset="100%" style="stop-opacity:0;stop-color:#fff"/></linearGradient><path d="M56.688 92.846 C39.266 92.846 24.773 82.446 23.447 66.178 C23.381 66.977 23.336 67.782 23.336 68.598 C23.336 85.998 38.402 100.182 56.688 100.182 C75.105 100.182 90.045 85.998 90.045 68.598 C90.045 67.782 90.002 66.977 89.936 66.178 C88.617 82.445 74.236 92.846 56.688 92.846 z" style="opacity:.8;fill:url(#XMLID_9_)"/><path d="M56.855 28.032 C35.84 28.032 18.807 45.068 18.807 66.082 C18.807 68.437 19.033 70.74 19.442 72.978 C27.21 71.189 35.63 70.33 44.41 70.628 C62.271 71.233 78.355 76.462 90.163 84.472 C93.179 79.021 94.901 72.753 94.901 66.081 C94.902 45.068 77.867 28.032 56.855 28.032 z" style="fill:none"/><radialGradient id="XMLID_10_" cx="56.323" cy="83.548" r="76.317" fx="56.323" fy="83.548" gradientUnits="userSpaceOnUse"><stop offset="0" style="stop-color:#fff"/><stop offset=".332" style="stop-color:#006868"/><stop offset=".792" style="stop-color:#002b38"/></radialGradient><path d="M18.808 66.082 C18.808 45.068 35.841 28.032 56.856 28.032 C77.868 28.032 94.903 45.068 94.903 66.082 C94.903 72.754 93.18 79.021 90.165 84.473 C90.665 84.813 91.167 85.151 91.649 85.498 C94.872 79.748 96.717 73.127 96.717 66.082 C96.717 44.103 78.834 26.222 56.856 26.222 C34.878 26.222 16.998 44.103 16.998 66.082 C16.998 68.58 17.24 71.023 17.683 73.395 C18.264 73.249 18.854 73.116 19.444 72.979 C19.033 70.74 18.808 68.438 18.808 66.082 z" style="fill:url(#XMLID_10_)"/><path d="M56.855 105.941 C71.789 105.941 84.822 97.681 91.648 85.498 C91.166 85.15 90.664 84.812 90.164 84.473 C83.68 96.194 71.195 104.131 56.855 104.131 C38.196 104.131 22.688 90.699 19.442 72.979 C18.852 73.116 18.262 73.249 17.681 73.395 C21.127 91.891 37.376 105.941 56.855 105.941 z"/><path d="M44.367 73.572 C44.734 73.566 45.096 73.551 45.466 73.551 C51.759 73.551 57.821 74.225 63.521 75.451 C55.977 67.211 45.125 55.362 44.367 54.534 C44.367 55.708 44.367 67 44.367 73.572 z" style="fill:none"/><path d="M77.873 46.075 L63.829 46.075 C63.634 46.075 63.477 46.228 63.477 46.417 L63.477 47.387 C63.477 47.576 63.633 47.73 63.829 47.73 C67.256 47.73 68.996 48.21 68.996 50.835 C68.996 50.835 68.996 70.116 68.996 71.796 C67.83 70.488 46.12 46.192 46.12 46.192 C46.054 46.118 45.957 46.075 45.856 46.075 L35.612 46.075 C35.418 46.075 35.261 46.228 35.261 46.417 L35.261 47.387 C35.261 47.484 35.303 47.576 35.378 47.642 C35.451 47.706 35.55 47.738 35.649 47.727 C38.035 47.481 38.685 48.192 39.867 49.484 C39.867 49.484 40.501 50.154 40.659 50.322 L40.659 73.696 C40.659 76.423 40.659 78.259 40.659 78.259 C40.659 80.825 37.848 81.364 35.49 81.364 C35.296 81.364 35.139 81.516 35.139 81.706 L35.139 82.675 C35.139 82.864 35.296 83.019 35.49 83.019 L49.535 83.019 C49.729 83.019 49.886 82.865 49.886 82.675 L49.886 81.706 C49.886 81.517 49.729 81.364 49.535 81.364 C47.177 81.364 44.366 80.825 44.366 78.259 C44.366 78.259 44.366 76.325 44.366 73.571 L44.366 54.534 C45.123 55.362 55.976 67.211 63.52 75.451 C66.705 76.135 69.775 76.99 72.705 78.012 L72.705 50.836 C72.705 48.211 74.445 47.731 77.873 47.731 C78.066 47.731 78.223 47.578 78.223 47.388 L78.223 46.418 C78.223 46.229 78.066 46.075 77.873 46.075 z" style="fill:#fff"/></g><g><radialGradient id="XMLID_11_" cx="102.131" cy="117.697" r="34.736" fx="102.131" fy="117.697" gradientUnits="userSpaceOnUse"><stop offset="0" style="stop-color:#000"/><stop offset="1" style="stop-color:#000"/></radialGradient><path d="M78.855 90.424 L78.855 126.178 L80.648 126.178 L114.287 92.539 L114.287 90.424 z" style="opacity:.1;fill:url(#XMLID_11_)"/><path d="M81.201 126.396 L114.828 92.769 L81.201 92.769 z" style="fill:#fff"/><linearGradient id="XMLID_12_" x1="97.682" x2="88.753" y1="97.629" y2="135.242" gradientUnits="userSpaceOnUse"><stop offset="0" style="stop-color:#fff"/><stop offset="1" style="stop-color:#ccc"/></linearGradient><path d="M83.529 124.504 L113.123 94.912 L83.529 94.912 z" style="fill:url(#XMLID_12_)"/><linearGradient id="XMLID_13_" x1="75.973" x2="89.768" y1="87.541" y2="101.337" gradientUnits="userSpaceOnUse"><stop offset="0" style="stop-color:#b2b2b2"/><stop offset="1" style="stop-color:#828282"/></linearGradient><path d="M81.201 92.27 C80.924 92.27 80.701 92.493 80.701 92.77 L80.701 126.397 C80.701 126.6 80.822 126.782 81.01 126.86 C81.196 126.936 81.412 126.893 81.555 126.751 L115.182 93.124 C115.325 92.979 115.368 92.765 115.291 92.579 C115.213 92.391 115.031 92.27 114.828 92.27 zM113.621 93.27 C112.041 94.848 83.279 123.61 81.701 125.19 C81.701 122.981 81.701 94.204 81.701 93.27 C82.635 93.27 111.412 93.27 113.621 93.27 z" style="fill:url(#XMLID_13_)"/></g></g></g></svg>