<svg xmlns="http://www.w3.org/2000/svg" xmlns:xlink="http://www.w3.org/1999/xlink" width="128" height="128" enable-background="new 0 0 128 128" overflow="visible" viewBox="0 0 128 128" xml:space="preserve"><g id="Layer_1"><g><g><path fill="#FFF" d="M121.164,1.052H6.836v125.896h80.701l33.627-33.627V1.052z"/><linearGradient id="XMLID_1_" x1="63.92" x2="63.92" y1="154.565" y2="-100.935" gradientUnits="userSpaceOnUse"><stop offset="0" style="stop-color:#fff"/><stop offset=".246" style="stop-color:#f6f6f6"/><stop offset=".637" style="stop-color:#dfdfdf"/><stop offset="1" style="stop-color:#c4c4c4"/></linearGradient><path fill="url(#XMLID_1_)" d="M117.734,4.019H10.266l-0.16,122.654h76.457l31.172-31.252V4.019z"/><linearGradient id="XMLID_2_" x1="-26.333" x2="56.166" y1="-26.333" y2="56.166" gradientUnits="userSpaceOnUse"><stop offset="0" style="stop-color:#b3b3b3"/><stop offset="1" style="stop-color:#828282"/></linearGradient><path fill="url(#XMLID_2_)" d="M121.164,0.552H6.336v126.896h81.408l33.92-33.92V0.552H121.164z M120.664,1.552 c0,0.987,0,91.152,0,91.562c-0.289,0.289-33.045,33.045-33.334,33.334c-0.41,0-79.01,0-79.994,0c0-0.988,0-123.909,0-124.896 C8.322,1.552,119.678,1.552,120.664,1.552z"/><linearGradient id="XMLID_3_" x1="43.023" x2="204.007" y1="25.421" y2="111.065" gradientUnits="userSpaceOnUse"><stop offset="0" style="stop-color:#fff"/><stop offset=".86" style="stop-color:#dadada"/><stop offset="1" style="stop-color:#d4d4d4"/></linearGradient><path fill="url(#XMLID_3_)" d="M118.006,15.223V3.94H10.199l-0.096,65.34c9.975,4.547,21.151,7.096,32.954,7.096 C80.402,76.376,111.455,48.876,118.006,15.223z"/></g><linearGradient id="XMLID_4_" x1="-3.728" x2="127.593" y1="10.651" y2="10.651" gradientUnits="userSpaceOnUse"><stop offset="0" style="stop-color:#b3caff"/><stop offset="1" style="stop-color:#0053bd"/></linearGradient><path fill="url(#XMLID_4_)" d="M117.692,17.023H10.308V4.279h107.385V17.023z"/><linearGradient id="XMLID_5_" x1="62.831" x2="62.831" y1="95.114" y2="-25.552" gradientUnits="userSpaceOnUse"><stop offset="0" style="stop-color:#b3caff"/><stop offset="1" style="stop-color:#0053bd"/></linearGradient><path fill="url(#XMLID_5_)" d="M90.644,83.539h8c-2.477,5.074-6.275,9.051-11.398,11.926c-5.867,3.299-13.021,4.949-21.462,4.949 c-8.168,0-15.223-1.385-21.165-4.152c-5.941-2.771-10.359-6.855-13.256-12.254c-2.896-5.4-4.344-11.279-4.344-17.637 c0-6.977,1.645-13.477,4.936-19.498s7.795-10.541,13.51-13.559c5.715-3.016,12.248-4.525,19.596-4.525 c6.233,0,11.776,1.217,16.626,3.646s8.555,5.883,11.115,10.359s3.842,9.367,3.842,14.674c0,6.324-1.943,12.041-5.826,17.148 c-4.875,6.449-11.121,9.672-18.742,9.672c-2.055,0-3.6-0.357-4.638-1.074c-1.039-0.717-1.732-1.768-2.078-3.152 c-2.901,2.818-6.243,4.227-10.026,4.227c-4.078,0-7.463-1.416-10.154-4.252c-2.691-2.834-4.035-6.604-4.035-11.307 c0-5.816,1.621-11.125,4.863-15.928c3.93-5.842,8.965-8.764,15.107-8.764c4.372,0,7.601,1.684,9.689,5.047l0.926-4.297h9.783 l-5.6,26.73c-0.348,1.691-0.52,2.785-0.52,3.281c0,0.621,0.141,1.088,0.426,1.398s0.625,0.465,1.021,0.465 c1.186,0,2.719-0.717,4.598-2.154c2.521-1.881,4.561-4.406,6.119-7.576c1.557-3.168,2.336-6.449,2.336-9.842 c0-6.09-2.201-11.184-6.6-15.281s-10.541-6.146-18.423-6.146c-6.697,0-12.375,1.371-17.033,4.113 c-4.66,2.742-8.17,6.6-10.529,11.574c-2.359,4.977-3.539,10.156-3.539,15.539c0,5.236,1.314,10,3.947,14.293 c2.633,4.291,6.328,7.424,11.086,9.396s10.203,2.959,16.334,2.959c5.905,0,10.985-0.834,15.237-2.5 C84.624,89.371,88.048,86.871,90.644,83.539z M50.769,68.375c0,3.141,0.629,5.453,1.887,6.938s2.816,2.227,4.676,2.227 c1.391,0,2.699-0.346,3.922-1.039c0.928-0.494,1.844-1.273,2.75-2.338c1.295-1.508,2.413-3.707,3.354-6.602 c0.94-2.895,1.411-5.59,1.411-8.09c0-2.795-0.643-4.941-1.925-6.438c-1.283-1.496-2.903-2.244-4.856-2.244 c-2.104,0-4.047,0.822-5.83,2.467c-1.785,1.645-3.129,3.988-4.033,7.031S50.769,66.025,50.769,68.375z"/><g><radialGradient id="XMLID_6_" cx="108.467" cy="118.249" r="34.736" fx="108.467" fy="118.249" gradientUnits="userSpaceOnUse"><stop offset="0" style="stop-color:#000"/><stop offset="1" style="stop-color:#000"/></radialGradient><path fill="url(#XMLID_6_)" d="M85.191,90.976v35.754h1.793l33.639-33.639v-2.115H85.191z" opacity=".1"/><path fill="#FFF" d="M87.537,126.948l33.627-33.627H87.537V126.948z"/><linearGradient id="XMLID_7_" x1="104.017" x2="95.088" y1="98.181" y2="135.794" gradientUnits="userSpaceOnUse"><stop offset="0" style="stop-color:#fff"/><stop offset="1" style="stop-color:#ccc"/></linearGradient><path fill="url(#XMLID_7_)" d="M89.865,125.056l29.594-29.592H89.865V125.056z"/><linearGradient id="XMLID_8_" x1="82.309" x2="96.104" y1="88.093" y2="101.888" gradientUnits="userSpaceOnUse"><stop offset="0" style="stop-color:#b3b3b3"/><stop offset="1" style="stop-color:#828282"/></linearGradient><path fill="url(#XMLID_8_)" d="M87.537,92.821c-0.277,0-0.5,0.223-0.5,0.5v33.627c0,0.203,0.121,0.385,0.309,0.463 c0.186,0.076,0.402,0.033,0.545-0.109l33.627-33.627c0.143-0.145,0.186-0.359,0.109-0.545c-0.078-0.188-0.26-0.309-0.463-0.309 H87.537z M119.957,93.821c-1.58,1.578-30.342,30.34-31.92,31.92c0-2.209,0-30.986,0-31.92 C88.971,93.821,117.748,93.821,119.957,93.821z"/></g><g><path fill="#FFF" d="M13.503,14.448V5.854h2.6l1.548,5.862l1.538-5.862H21.8v8.594h-1.609l-0.008-6.765l-1.71,6.765h-1.666 l-1.686-6.765l-0.008,6.765H13.503z"/><path fill="#FFF" d="M31.265,14.448h-1.867l-0.746-1.953h-3.447L24.5,14.448h-1.86l3.305-8.594h1.857L31.265,14.448z M28.082,11.042l-1.199-3.188l-1.152,3.188H28.082z"/><path fill="#FFF" d="M32.134,14.448V5.854h1.734v8.594H32.134z"/><path fill="#FFF" d="M35.562,14.448V5.933h1.734v7.062h4.312v1.453H35.562z"/></g><path fill="none" d="M75.913,71.52c-0.348,1.691-0.52,2.785-0.52,3.281c0,0.621,0.141,1.088,0.426,1.398s0.625,0.465,1.021,0.465 c1.186,0,2.719-0.717,4.598-2.154c2.521-1.881,4.561-4.406,6.119-7.576c1.048-2.133,1.735-4.319,2.078-6.555 c-4.059,3.127-8.447,5.861-13.097,8.154L75.913,71.52z"/></g><path fill="none" d="M128,128H0V0h128V128z"/></g></svg>