<svg xmlns="http://www.w3.org/2000/svg" xmlns:xlink="http://www.w3.org/1999/xlink" width="128" height="128" enable-background="new 0 0 128 128" overflow="visible" viewBox="0 0 128 128" xml:space="preserve"><g id="Layer_1"><g><path fill="#FFF" d="M121.164,1.052H6.836v125.896h80.701l33.627-33.627V1.052z"/><linearGradient id="XMLID_1_" x1="63.92" x2="63.92" y1="154.565" y2="-100.935" gradientUnits="userSpaceOnUse"><stop offset="0" style="stop-color:#fff"/><stop offset=".246" style="stop-color:#f6f6f6"/><stop offset=".637" style="stop-color:#dfdfdf"/><stop offset="1" style="stop-color:#c4c4c4"/></linearGradient><path fill="url(#XMLID_1_)" d="M117.734,4.019H10.266l-0.16,122.654h76.457l31.172-31.252V4.019z"/><linearGradient id="XMLID_2_" x1="-26.333" x2="56.166" y1="-26.333" y2="56.166" gradientUnits="userSpaceOnUse"><stop offset="0" style="stop-color:#b3b3b3"/><stop offset="1" style="stop-color:#828282"/></linearGradient><path fill="url(#XMLID_2_)" d="M121.164,0.552H6.336v126.896h81.408l33.92-33.92V0.552H121.164z M120.664,1.552 c0,0.987,0,91.152,0,91.562c-0.289,0.289-33.045,33.045-33.334,33.334c-0.41,0-79.01,0-79.994,0c0-0.988,0-123.909,0-124.896 C8.322,1.552,119.678,1.552,120.664,1.552z"/><linearGradient id="XMLID_3_" x1="43.023" x2="204.007" y1="25.421" y2="111.065" gradientUnits="userSpaceOnUse"><stop offset="0" style="stop-color:#fff"/><stop offset=".86" style="stop-color:#dadada"/><stop offset="1" style="stop-color:#d4d4d4"/></linearGradient><path fill="url(#XMLID_3_)" d="M118.006,15.223V3.94H10.199l-0.096,65.34c9.975,4.547,21.151,7.096,32.954,7.096 C80.402,76.376,111.455,48.876,118.006,15.223z"/><linearGradient id="XMLID_4_" x1="-3.806" x2="127.514" y1="10.651" y2="10.651" gradientUnits="userSpaceOnUse"><stop offset="0" style="stop-color:#b3caff"/><stop offset="1" style="stop-color:#0053bd"/></linearGradient><path fill="url(#XMLID_4_)" d="M117.613,17.023H10.229V4.279h107.384V17.023z"/><g><path fill="#FFF" d="M16.849,15.138V7.998h-2.531V6.544h6.797v1.453h-2.531v7.141H16.849z"/><path fill="#FFF" d="M21.366,15.138l2.964-4.482l-2.683-4.111h2.024l1.686,2.558l1.692-2.558h2.02l-2.69,4.108l2.956,4.485 h-2.08l-1.903-2.916l-1.909,2.916H21.366z"/><path fill="#FFF" d="M32.183,15.138V7.998h-2.531V6.544h6.797v1.453h-2.531v7.141H32.183z"/></g><g><g opacity=".1"><path fill="#000030" d="M108.156,79.092c-2.632-4.815-6.085-7.995-7.852-7.238L47.494,94.666 c-0.042-0.075-13.986,16.584-13.986,16.584l0.077,0.011l-0.004,0.008l23.322,0.451l0.059,0.072l52.79-22.664 C111.477,88.285,110.8,83.914,108.156,79.092z"/></g><linearGradient id="XMLID_5_" x1="-1103.799" x2="-1094.324" y1="1066.848" y2="1066.638" gradientTransform="matrix(0.9121 0.4099 -0.4099 0.9121 1486.1229 -457.4578)" gradientUnits="userSpaceOnUse"><stop offset="0" style="stop-color:#ffae00"/><stop offset="1" style="stop-color:#b40"/></linearGradient><path fill="url(#XMLID_5_)" d="M53.441,93.981l0.096,0.021L81.43,32.949c0.842-2.09-2.64-5.616-8.034-8.068 c-5.378-2.453-10.327-2.77-11.261-0.728L34.323,85.36c-0.15-0.064-0.296,25.956-0.296,25.956l0.072-0.048l0.001,0.012 l1.83-1.259L53.441,93.981z"/><path fill="#FFF0DC" d="M36.294,85.274l-0.93,23.159l16.759-16.021l-0.116-0.053c0.125-0.087,0.238-0.183,0.331-0.29 l0.088,0.041l26.708-58.532l-0.087-0.036c0.798-1.743-2.123-4.781-6.521-6.788c-4.396-2.006-8.605-2.22-9.399-0.479 l-26.705,58.53L36.294,85.274z"/><linearGradient id="XMLID_6_" x1="25.256" x2="57.619" y1="115.467" y2="45.102" gradientUnits="userSpaceOnUse"><stop offset="0" style="stop-color:#fff"/><stop offset="1" style="stop-color:#ffeb00"/></linearGradient><path fill="url(#XMLID_6_)" d="M63.29,25.924c-0.543,1.339,1.014,3.396,3.718,5.178l-26.8,58.737 c-2.39-1.559-3.788-3.66-3.827-5.005l26.896-58.917L63.29,25.924z"/><linearGradient id="XMLID_7_" x1="38.093" x2="69.967" y1="116.234" y2="47.338" gradientUnits="userSpaceOnUse"><stop offset="0" style="stop-color:#ffffd9"/><stop offset="1" style="stop-color:#ff9a2b"/></linearGradient><path fill="url(#XMLID_7_)" d="M52.599,91.878c-0.607,1.329-3.301,1.461-6.401,0.638l26.791-58.712 c3.042,0.823,5.538,0.631,6.184-0.633l0.167,0.076L53.354,90.195C53.342,90.243,52.738,91.569,52.599,91.878z"/><linearGradient id="XMLID_8_" x1="27.781" x2="66.762" y1="125.799" y2="39.258" gradientUnits="userSpaceOnUse"><stop offset="0" style="stop-color:#ffffe8"/><stop offset="1" style="stop-color:#ffbd00"/></linearGradient><path fill="url(#XMLID_8_)" d="M42.941,91.339c-0.999-0.454-1.913-0.966-2.733-1.499l26.8-58.737 c0.84,0.551,1.779,1.08,2.808,1.548c1.084,0.496,2.161,0.88,3.173,1.153L46.198,92.516 C45.158,92.242,44.054,91.848,42.941,91.339z"/><path fill="#000030" d="M35.683,99.304l-0.335,9.2l5.979-5.707c0,0-1.064,0.267-3.042-0.751 C35.665,100.703,35.683,99.304,35.683,99.304z" opacity=".4"/></g><g><radialGradient id="XMLID_9_" cx="108.467" cy="118.249" r="34.736" fx="108.467" fy="118.249" gradientUnits="userSpaceOnUse"><stop offset="0" style="stop-color:#fff;stop-opacity:0"/><stop offset="1" style="stop-color:#fff;stop-opacity:0"/></radialGradient><path fill="url(#XMLID_9_)" d="M85.191,90.976v35.754h1.793l33.639-33.639v-2.115H85.191z" opacity=".1"/><path fill="#FFF" d="M87.537,126.948l33.627-33.627H87.537V126.948z"/><linearGradient id="XMLID_10_" x1="104.017" x2="95.088" y1="98.181" y2="135.794" gradientUnits="userSpaceOnUse"><stop offset="0" style="stop-color:#fff"/><stop offset="1" style="stop-color:#ccc"/></linearGradient><path fill="url(#XMLID_10_)" d="M89.865,125.056l29.594-29.592H89.865V125.056z"/><linearGradient id="XMLID_11_" x1="82.309" x2="96.104" y1="88.093" y2="101.888" gradientUnits="userSpaceOnUse"><stop offset="0" style="stop-color:#b3b3b3"/><stop offset="1" style="stop-color:#828282"/></linearGradient><path fill="url(#XMLID_11_)" d="M87.537,92.821c-0.277,0-0.5,0.223-0.5,0.5v33.627c0,0.203,0.121,0.385,0.309,0.463 c0.186,0.076,0.402,0.033,0.545-0.109l33.627-33.627c0.143-0.145,0.186-0.359,0.109-0.545c-0.078-0.188-0.26-0.309-0.463-0.309 H87.537z M119.957,93.821c-1.58,1.578-30.342,30.34-31.92,31.92c0-2.209,0-30.986,0-31.92 C88.971,93.821,117.748,93.821,119.957,93.821z"/></g></g><path fill="none" d="M128,128H0V0h128V128z"/></g></svg>