<svg xmlns="http://www.w3.org/2000/svg" xmlns:xlink="http://www.w3.org/1999/xlink" width="128" height="128" enable-background="new 0 0 128 128" overflow="visible" viewBox="0 0 128 128" xml:space="preserve"><g id="Layer_1"><g><g><path fill="#FFF" d="M122.823,40.898H44.844v85.87h55.043l22.937-22.936V40.898z"/><linearGradient id="XMLID_1_" x1="83.778" x2="83.778" y1="145.603" y2="-28.664" gradientUnits="userSpaceOnUse"><stop offset="0" style="stop-color:#fff"/><stop offset=".258" style="stop-color:#f1f1f1"/><stop offset=".74" style="stop-color:#cecece"/><stop offset=".86" style="stop-color:#c4c4c4"/></linearGradient><path fill="url(#XMLID_1_)" d="M120.483,42.922H47.183l-0.109,83.658h52.148l21.262-21.316V42.922z"/><radialGradient id="XMLID_2_" cx="114.163" cy="120.835" r="23.692" fx="114.163" fy="120.835" gradientUnits="userSpaceOnUse"><stop offset="0" style="stop-color:#000"/><stop offset="1" style="stop-color:#000"/></radialGradient><path fill="url(#XMLID_2_)" d="M98.287,102.232v24.387h1.223l22.944-22.943v-1.443H98.287z" opacity=".1"/><path fill="#FFF" d="M99.887,126.769l22.937-22.936H99.887V126.769z"/><linearGradient id="XMLID_3_" x1="111.128" x2="105.038" y1="107.147" y2="132.802" gradientUnits="userSpaceOnUse"><stop offset="0" style="stop-color:#fff"/><stop offset="1" style="stop-color:#ccc"/></linearGradient><path fill="url(#XMLID_3_)" d="M101.476,125.478l20.185-20.184h-20.185V125.478z"/><linearGradient id="XMLID_4_" x1="69.525" x2="179.329" y1="57.52" y2="115.935" gradientUnits="userSpaceOnUse"><stop offset="0" style="stop-color:#fff"/><stop offset=".503" style="stop-color:#e7e7e7"/><stop offset="1" style="stop-color:#d4d4d4"/></linearGradient><path fill="url(#XMLID_4_)" d="M120.669,50.563v-7.695H47.137l-0.064,44.566c6.803,3.102,14.427,4.84,22.477,4.84 C95.021,92.274,116.2,73.518,120.669,50.563z"/><linearGradient id="XMLID_5_" x1="96.186" x2="105.748" y1="100.132" y2="109.694" gradientUnits="userSpaceOnUse"><stop offset="0" style="stop-color:#b3b3b3"/><stop offset="1" style="stop-color:#828282"/></linearGradient><path fill="url(#XMLID_5_)" d="M99.887,103.333c-0.276,0-0.5,0.224-0.5,0.5v22.936c0,0.202,0.122,0.385,0.309,0.462 s0.402,0.035,0.545-0.108l22.937-22.936c0.143-0.143,0.186-0.358,0.108-0.545s-0.26-0.309-0.462-0.309H99.887z M121.616,104.333 c-1.521,1.521-19.708,19.707-21.229,21.229c0-2.117,0-20.323,0-21.229C101.292,104.333,119.499,104.333,121.616,104.333z"/><linearGradient id="XMLID_6_" x1="21.983" x2="78.469" y1="21.984" y2="78.469" gradientUnits="userSpaceOnUse"><stop offset="0" style="stop-color:#b3b3b3"/><stop offset="1" style="stop-color:#828282"/></linearGradient><path fill="url(#XMLID_6_)" d="M122.323,41.398c0,0.98,0,61.819,0,62.228c-0.287,0.287-22.356,22.355-22.644,22.643 c-0.407,0-53.358,0-54.336,0c0-0.982,0-83.888,0-84.87C46.324,41.398,121.343,41.398,122.323,41.398z M122.823,40.398H44.344 v86.87h55.75l23.229-23.229V40.398H122.823z"/></g><radialGradient id="XMLID_7_" cx="59.391" cy="69.997" r="77.196" fx="59.391" fy="69.997" gradientUnits="userSpaceOnUse"><stop offset="0" style="stop-color:#000"/><stop offset="1" style="stop-color:#000"/></radialGradient><path fill="url(#XMLID_7_)" d="M44.514,89.935h18.622l11.238-11.237L85.47,67.602l0.142-0.142V40.213H44.514 V89.935z" opacity=".1"/><g><path fill="#FFF" d="M83.156,1.231H5.177v85.87H60.22l22.937-22.936V1.231z"/><linearGradient id="XMLID_8_" x1="44.112" x2="44.112" y1="105.938" y2="-68.33" gradientUnits="userSpaceOnUse"><stop offset="0" style="stop-color:#fff"/><stop offset=".258" style="stop-color:#f1f1f1"/><stop offset=".74" style="stop-color:#cecece"/><stop offset=".86" style="stop-color:#c4c4c4"/></linearGradient><path fill="url(#XMLID_8_)" d="M80.816,3.256H7.516L7.407,86.914h52.147l21.262-21.316V3.256z"/><radialGradient id="XMLID_9_" cx="74.495" cy="81.169" r="23.694" fx="74.495" fy="81.169" gradientUnits="userSpaceOnUse"><stop offset="0" style="stop-color:#000"/><stop offset="1" style="stop-color:#000"/></radialGradient><path fill="url(#XMLID_9_)" d="M58.62,62.565v24.388h1.223l22.944-22.944v-1.443H58.62z" opacity=".1"/><path fill="#FFF" d="M60.22,87.102l22.937-22.936H60.22V87.102z"/><linearGradient id="XMLID_10_" x1="71.462" x2="65.372" y1="67.48" y2="93.135" gradientUnits="userSpaceOnUse"><stop offset="0" style="stop-color:#fff"/><stop offset="1" style="stop-color:#ccc"/></linearGradient><path fill="url(#XMLID_10_)" d="M61.809,85.811l20.186-20.184H61.809V85.811z"/><linearGradient id="XMLID_11_" x1="29.859" x2="139.661" y1="17.853" y2="76.268" gradientUnits="userSpaceOnUse"><stop offset="0" style="stop-color:#fff"/><stop offset=".503" style="stop-color:#e7e7e7"/><stop offset="1" style="stop-color:#d4d4d4"/></linearGradient><path fill="url(#XMLID_11_)" d="M81.002,10.896V3.201H7.471L7.405,47.768c6.804,3.102,14.427,4.84,22.477,4.84 C55.354,52.607,76.533,33.851,81.002,10.896z"/><linearGradient id="XMLID_12_" x1="56.519" x2="66.081" y1="60.465" y2="70.027" gradientUnits="userSpaceOnUse"><stop offset="0" style="stop-color:#b3b3b3"/><stop offset="1" style="stop-color:#828282"/></linearGradient><path fill="url(#XMLID_12_)" d="M60.22,63.666c-0.276,0-0.5,0.224-0.5,0.5v22.936c0,0.203,0.122,0.385,0.309,0.463 c0.187,0.076,0.402,0.035,0.545-0.109L83.51,64.52c0.143-0.143,0.186-0.358,0.109-0.545c-0.078-0.187-0.26-0.309-0.463-0.309 H60.22z M81.949,64.666c-1.521,1.521-19.708,19.707-21.229,21.229c0-2.117,0-20.322,0-21.229 C61.625,64.666,79.832,64.666,81.949,64.666z"/><linearGradient id="XMLID_13_" x1="-17.684" x2="38.802" y1="-17.684" y2="38.802" gradientUnits="userSpaceOnUse"><stop offset="0" style="stop-color:#b3b3b3"/><stop offset="1" style="stop-color:#828282"/></linearGradient><path fill="url(#XMLID_13_)" d="M82.656,1.731c0,0.981,0,61.819,0,62.228C82.369,64.246,60.3,86.314,60.013,86.602 c-0.407,0-53.357,0-54.336,0c0-0.982,0-83.888,0-84.87C6.658,1.731,81.676,1.731,82.656,1.731z M83.156,0.731H4.677v86.87h55.75 l23.229-23.229V0.731H83.156z"/></g></g><path fill="none" d="M128,128H0V0h128V128z"/></g></svg>