<svg xmlns="http://www.w3.org/2000/svg" xmlns:xlink="http://www.w3.org/1999/xlink" xmlns:xml="http://www.w3.org/XML/1998/namespace" id="svg775" width="128" height="128" enable-background="new 0 0 128 128" overflow="visible" viewBox="0 0 128 128" xml:space="preserve"><defs id="defs834"><linearGradient id="XMLID_7_" x1="-56.222" x2="74.82" y1="10.651" y2="10.651" gradientUnits="userSpaceOnUse"><stop id="stop827" offset="0" style="stop-color:#fff"/><stop id="stop828" offset="1" style="stop-color:#628bff"/></linearGradient><linearGradient id="XMLID_1_" x1="63.92" x2="63.92" y1="154.565" y2="-100.935" gradientUnits="userSpaceOnUse"><stop id="stop780" offset="0" style="stop-color:#fff"/><stop id="stop781" offset=".258" style="stop-color:#f1f1f1"/><stop id="stop782" offset=".74" style="stop-color:#cecece"/><stop id="stop783" offset=".86" style="stop-color:#c4c4c4"/></linearGradient><radialGradient id="XMLID_2_" cx="108.467" cy="118.249" r="34.736" fx="108.467" fy="118.249" gradientUnits="userSpaceOnUse"><stop id="stop789" offset="0" style="stop-color:#000"/><stop id="stop790" offset="1" style="stop-color:#000"/></radialGradient><linearGradient id="XMLID_3_" x1="-26.333" x2="56.166" y1="-26.333" y2="56.166" gradientUnits="userSpaceOnUse"><stop id="stop796" offset="0" style="stop-color:#b3b3b3"/><stop id="stop797" offset="1" style="stop-color:#828282"/></linearGradient><linearGradient id="XMLID_4_" x1="104.017" x2="95.088" y1="98.181" y2="135.794" gradientUnits="userSpaceOnUse"><stop id="stop804" offset="0" style="stop-color:#fff"/><stop id="stop805" offset="1" style="stop-color:#ccc"/></linearGradient><linearGradient id="XMLID_5_" x1="82.309" x2="96.104" y1="88.093" y2="101.888" gradientUnits="userSpaceOnUse"><stop id="stop811" offset="0" style="stop-color:#b3b3b3"/><stop id="stop812" offset="1" style="stop-color:#828282"/></linearGradient><linearGradient id="XMLID_6_" x1="43.023" x2="204.007" y1="25.421" y2="111.065" gradientUnits="userSpaceOnUse"><stop id="stop818" offset="0" style="stop-color:#fff"/><stop id="stop819" offset=".503" style="stop-color:#e7e7e7"/><stop id="stop820" offset="1" style="stop-color:#d4d4d4"/></linearGradient></defs><g id="g713"><path style="font-size:12;fill:#fff" id="path778" fill="#FFF" d="M121.164,1.052H6.836v125.896h80.701l33.627-33.627V1.052z"/><path style="font-size:12;fill:url(#XMLID_1_)" id="path787" fill="url(#XMLID_1_)" d="M117.734,4.019H10.266l-0.16,122.654h76.457l31.172-31.252V4.019z"/><path style="font-size:12;fill:url(#XMLID_3_)" id="path801" fill="url(#XMLID_3_)" d="M121.164,0.552H6.336v126.896h81.408l33.92-33.92V0.552H121.164z M120.664,1.552 c0,0.987,0,91.152,0,91.562c-0.289,0.289-33.045,33.045-33.334,33.334c-0.41,0-79.01,0-79.994,0c0-0.988,0-123.909,0-124.896 C8.322,1.552,119.678,1.552,120.664,1.552z"/><path style="font-size:12;fill:url(#XMLID_6_)" id="path824" fill="url(#XMLID_6_)" d="M118.006,15.223V3.94H10.199l-0.096,65.34c9.975,4.547,21.151,7.096,32.954,7.096 C80.402,76.376,111.455,48.876,118.006,15.223z"/><path style="font-size:12;fill:none" id="path825" fill="none" d="M128,128H0V0h128V128z"/><path style="font-size:12;fill:url(#XMLID_7_)" id="path832" fill="url(#XMLID_7_)" d="M117.397,17.023H10.013V4.279h107.385V17.023z"/><text id="text1157" x="12.382" y="15.084" style="font-size:12;font-weight:700;fill:#fff;stroke-width:1pt;font-family:Bitstream Vera Sans"><tspan style="fill:#fff;fill-opacity:1" id="tspan1162" x="12.382" y="15.084">UML</tspan></text><g id="g666" transform="matrix(0.824381,0.000000,0.000000,0.726761,10.89137,17.12144)"><path id="path692" d="M 124.627609 92.865616 A 38.007004 15.246998 0 1 0 48.613602,92.865616 A 38.007 15.247 0 1 0 124.628 92.8656 L 86.620605 92.865616 z" transform="matrix(0.928695,0.000000,0.000000,1.417564,8.002730,-31.08487)" style="font-size:12;fill:#ffffc6;fill-rule:evenodd;stroke:red;stroke-width:7.5"/><path id="path693" d="M 72.4785 79.3864 C 34.9134 21.0501 34.9134 21.0501 34.9134 21.0501" transform="matrix(1.411764,0.000000,0.000000,0.833773,-11.72443,12.31231)" style="font-size:12;fill:none;fill-rule:evenodd;stroke:red;stroke-width:7.5"/><g id="g660"><path id="path676" d="M 40.442997 41.068401 A 16.677525 14.801304 0 1 0 7.087948,41.068401 A 16.6775 14.8013 0 1 0 40.443 41.0684 L 23.765472 41.068401 z" transform="matrix(1.013258,0.000000,0.000000,1.024898,-2.648489,-22.24460)" style="font-size:12;fill:#ffffc6;fill-rule:evenodd;stroke:red;stroke-width:7.5"/><path id="path678" d="M 21.6808 37.9414 C 21.6808 72.9642 21.6808 73.3811 21.6808 73.3811" transform="translate(-0.149714,-2.803091)" style="font-size:12;fill:#ffffc6;fill-rule:evenodd;stroke:red;stroke-width:7.5"/><path id="path679" d="M 21.8167 72.8687 C 6.04381 92.769 6.04381 92.769 6.04381 92.769" transform="matrix(1.140186,0.000000,0.000000,1.081482,-3.208123,-8.740551)" style="font-size:12;fill:none;fill-rule:evenodd;stroke:red;stroke-width:7.5"/><path id="path680" d="M 21.8167 72.8687 C 6.04381 92.769 6.04381 92.769 6.04381 92.769" transform="matrix(-0.325459,1.009940,-1.143542,-0.287436,129.3098,90.41549)" style="font-size:12;fill:none;fill-rule:evenodd;stroke:red;stroke-width:7.5"/><path id="path685" d="M 21.8167 72.8687 C 6.04381 92.769 6.04381 92.769 6.04381 92.769" transform="matrix(0.907775,0.892150,-1.392062,0.707907,123.9441,-17.72130)" style="font-size:12;fill:none;fill-rule:evenodd;stroke:red;stroke-width:7.5"/></g></g><g style="font-size:12" id="g1146"><path style="font-size:12;opacity:.1;fill:url(#XMLID_2_)" id="path794" fill="url(#XMLID_2_)" d="M85.191,90.976v35.754h1.793l33.639-33.639v-2.115H85.191z" opacity=".1"/><path style="font-size:12;fill:#fff" id="path802" fill="#FFF" d="M87.537,126.948l33.627-33.627H87.537V126.948z"/><path style="font-size:12;fill:url(#XMLID_4_)" id="path809" fill="url(#XMLID_4_)" d="M89.865,125.056l29.594-29.592H89.865V125.056z"/><path style="font-size:12;fill:url(#XMLID_5_)" id="path816" fill="url(#XMLID_5_)" d="M87.537,92.821c-0.277,0-0.5,0.223-0.5,0.5v33.627c0,0.203,0.121,0.385,0.309,0.463 c0.186,0.076,0.402,0.033,0.545-0.109l33.627-33.627c0.143-0.145,0.186-0.359,0.109-0.545c-0.078-0.188-0.26-0.309-0.463-0.309 H87.537z M119.957,93.821c-1.58,1.578-30.342,30.34-31.92,31.92c0-2.209,0-30.986,0-31.92 C88.971,93.821,117.748,93.821,119.957,93.821z"/></g></g></svg>